<?xml version="1.0" encoding="utf-8" standalone="no"?>
<!DOCTYPE svg PUBLIC "-//W3C//DTD SVG 1.1//EN"
  "http://www.w3.org/Graphics/SVG/1.1/DTD/svg11.dtd">
<svg xmlns:xlink="http://www.w3.org/1999/xlink" width="520.68pt" height="660.208594pt" viewBox="0 0 520.68 660.208594" xmlns="http://www.w3.org/2000/svg" version="1.1">
 <metadata>
  <rdf:RDF xmlns:dc="http://purl.org/dc/elements/1.1/" xmlns:cc="http://creativecommons.org/ns#" xmlns:rdf="http://www.w3.org/1999/02/22-rdf-syntax-ns#">
   <cc:Work>
    <dc:type rdf:resource="http://purl.org/dc/dcmitype/StillImage"/>
    <dc:date>2025-06-12T14:01:09.198699</dc:date>
    <dc:format>image/svg+xml</dc:format>
    <dc:creator>
     <cc:Agent>
      <dc:title>Matplotlib v3.8.0, https://matplotlib.org/</dc:title>
     </cc:Agent>
    </dc:creator>
   </cc:Work>
  </rdf:RDF>
 </metadata>
 <defs>
  <style type="text/css">*{stroke-linejoin: round; stroke-linecap: butt}</style>
 </defs>
 <g id="figure_1">
  <g id="patch_1">
   <path d="M 0 660.208594 
L 520.68 660.208594 
L 520.68 0 
L 0 0 
L 0 660.208594 
z
" style="fill: none"/>
  </g>
  <g id="axes_1">
   <g id="patch_2">
    <path d="M 122.88 561.718594 
L 513.48 561.718594 
L 513.48 173.638594 
L 122.88 173.638594 
L 122.88 561.718594 
z
" style="fill: none"/>
   </g>
   <g id="matplotlib.axis_1">
    <g id="xtick_1">
     <g id="line2d_1">
      <defs>
       <path id="mf83279f066" d="M 0 0 
L 0 9 
" style="stroke: #262626; stroke-width: 1.875"/>
      </defs>
      <g>
       <use xlink:href="#mf83279f066" x="122.88" y="561.718594" style="fill: #262626; stroke: #262626; stroke-width: 1.875"/>
      </g>
     </g>
     <g id="text_1">
      <!-- $\mathdefault{10^{-3}}$ -->
      <g style="fill: #262626" transform="translate(90.21 608.249844) scale(0.33 -0.33)">
       <defs>
        <path id="ArialMT-31" d="M 2384 0 
L 1822 0 
L 1822 3584 
Q 1619 3391 1289 3197 
Q 959 3003 697 2906 
L 697 3450 
Q 1169 3672 1522 3987 
Q 1875 4303 2022 4600 
L 2384 4600 
L 2384 0 
z
" transform="scale(0.015625)"/>
        <path id="ArialMT-30" d="M 266 2259 
Q 266 3072 433 3567 
Q 600 4063 929 4331 
Q 1259 4600 1759 4600 
Q 2128 4600 2406 4451 
Q 2684 4303 2865 4023 
Q 3047 3744 3150 3342 
Q 3253 2941 3253 2259 
Q 3253 1453 3087 958 
Q 2922 463 2592 192 
Q 2263 -78 1759 -78 
Q 1097 -78 719 397 
Q 266 969 266 2259 
z
M 844 2259 
Q 844 1131 1108 757 
Q 1372 384 1759 384 
Q 2147 384 2411 759 
Q 2675 1134 2675 2259 
Q 2675 3391 2411 3762 
Q 2147 4134 1753 4134 
Q 1366 4134 1134 3806 
Q 844 3388 844 2259 
z
" transform="scale(0.015625)"/>
        <path id="ArialMT-2212" d="M 3381 1997 
L 356 1997 
L 356 2522 
L 3381 2522 
L 3381 1997 
z
" transform="scale(0.015625)"/>
        <path id="ArialMT-33" d="M 269 1209 
L 831 1284 
Q 928 806 1161 595 
Q 1394 384 1728 384 
Q 2125 384 2398 659 
Q 2672 934 2672 1341 
Q 2672 1728 2419 1979 
Q 2166 2231 1775 2231 
Q 1616 2231 1378 2169 
L 1441 2663 
Q 1497 2656 1531 2656 
Q 1891 2656 2178 2843 
Q 2466 3031 2466 3422 
Q 2466 3731 2256 3934 
Q 2047 4138 1716 4138 
Q 1388 4138 1169 3931 
Q 950 3725 888 3313 
L 325 3413 
Q 428 3978 793 4289 
Q 1159 4600 1703 4600 
Q 2078 4600 2393 4439 
Q 2709 4278 2876 4000 
Q 3044 3722 3044 3409 
Q 3044 3113 2884 2869 
Q 2725 2625 2413 2481 
Q 2819 2388 3044 2092 
Q 3269 1797 3269 1353 
Q 3269 753 2831 336 
Q 2394 -81 1725 -81 
Q 1122 -81 723 278 
Q 325 638 269 1209 
z
" transform="scale(0.015625)"/>
       </defs>
       <use xlink:href="#ArialMT-31" transform="translate(0 0.99375)"/>
       <use xlink:href="#ArialMT-30" transform="translate(55.615234 0.99375)"/>
       <use xlink:href="#ArialMT-2212" transform="translate(112.972813 70.6875) scale(0.7)"/>
       <use xlink:href="#ArialMT-33" transform="translate(153.851719 70.6875) scale(0.7)"/>
      </g>
     </g>
    </g>
    <g id="xtick_2">
     <g id="line2d_2">
      <g>
       <use xlink:href="#mf83279f066" x="241.206704" y="561.718594" style="fill: #262626; stroke: #262626; stroke-width: 1.875"/>
      </g>
     </g>
     <g id="text_2">
      <!-- $\mathdefault{10^{-2}}$ -->
      <g style="fill: #262626" transform="translate(208.536704 608.249844) scale(0.33 -0.33)">
       <defs>
        <path id="ArialMT-32" d="M 3222 541 
L 3222 0 
L 194 0 
Q 188 203 259 391 
Q 375 700 629 1000 
Q 884 1300 1366 1694 
Q 2113 2306 2375 2664 
Q 2638 3022 2638 3341 
Q 2638 3675 2398 3904 
Q 2159 4134 1775 4134 
Q 1369 4134 1125 3890 
Q 881 3647 878 3216 
L 300 3275 
Q 359 3922 746 4261 
Q 1134 4600 1788 4600 
Q 2447 4600 2831 4234 
Q 3216 3869 3216 3328 
Q 3216 3053 3103 2787 
Q 2991 2522 2730 2228 
Q 2469 1934 1863 1422 
Q 1356 997 1212 845 
Q 1069 694 975 541 
L 3222 541 
z
" transform="scale(0.015625)"/>
       </defs>
       <use xlink:href="#ArialMT-31" transform="translate(0 0.99375)"/>
       <use xlink:href="#ArialMT-30" transform="translate(55.615234 0.99375)"/>
       <use xlink:href="#ArialMT-2212" transform="translate(112.972813 70.6875) scale(0.7)"/>
       <use xlink:href="#ArialMT-32" transform="translate(153.851719 70.6875) scale(0.7)"/>
      </g>
     </g>
    </g>
    <g id="xtick_3">
     <g id="line2d_3">
      <g>
       <use xlink:href="#mf83279f066" x="359.533408" y="561.718594" style="fill: #262626; stroke: #262626; stroke-width: 1.875"/>
      </g>
     </g>
     <g id="text_3">
      <!-- $\mathdefault{10^{-1}}$ -->
      <g style="fill: #262626" transform="translate(326.863408 608.249844) scale(0.33 -0.33)">
       <use xlink:href="#ArialMT-31" transform="translate(0 0.99375)"/>
       <use xlink:href="#ArialMT-30" transform="translate(55.615234 0.99375)"/>
       <use xlink:href="#ArialMT-2212" transform="translate(112.972813 70.6875) scale(0.7)"/>
       <use xlink:href="#ArialMT-31" transform="translate(153.851719 70.6875) scale(0.7)"/>
      </g>
     </g>
    </g>
    <g id="xtick_4">
     <g id="line2d_4">
      <g>
       <use xlink:href="#mf83279f066" x="477.860113" y="561.718594" style="fill: #262626; stroke: #262626; stroke-width: 1.875"/>
      </g>
     </g>
     <g id="text_4">
      <!-- $\mathdefault{10^{0}}$ -->
      <g style="fill: #262626" transform="translate(451.955113 608.249844) scale(0.33 -0.33)">
       <use xlink:href="#ArialMT-31" transform="translate(0 0.99375)"/>
       <use xlink:href="#ArialMT-30" transform="translate(55.615234 0.99375)"/>
       <use xlink:href="#ArialMT-30" transform="translate(112.972813 70.6875) scale(0.7)"/>
      </g>
     </g>
    </g>
    <g id="xtick_5">
     <g id="line2d_5">
      <defs>
       <path id="mb5e9beed29" d="M 0 0 
L 0 6 
" style="stroke: #262626; stroke-width: 1.5"/>
      </defs>
      <g>
       <use xlink:href="#mb5e9beed29" x="158.499887" y="561.718594" style="fill: #262626; stroke: #262626; stroke-width: 1.5"/>
      </g>
     </g>
    </g>
    <g id="xtick_6">
     <g id="line2d_6">
      <g>
       <use xlink:href="#mb5e9beed29" x="179.336186" y="561.718594" style="fill: #262626; stroke: #262626; stroke-width: 1.5"/>
      </g>
     </g>
    </g>
    <g id="xtick_7">
     <g id="line2d_7">
      <g>
       <use xlink:href="#mb5e9beed29" x="194.119775" y="561.718594" style="fill: #262626; stroke: #262626; stroke-width: 1.5"/>
      </g>
     </g>
    </g>
    <g id="xtick_8">
     <g id="line2d_8">
      <g>
       <use xlink:href="#mb5e9beed29" x="205.586817" y="561.718594" style="fill: #262626; stroke: #262626; stroke-width: 1.5"/>
      </g>
     </g>
    </g>
    <g id="xtick_9">
     <g id="line2d_9">
      <g>
       <use xlink:href="#mb5e9beed29" x="214.956073" y="561.718594" style="fill: #262626; stroke: #262626; stroke-width: 1.5"/>
      </g>
     </g>
    </g>
    <g id="xtick_10">
     <g id="line2d_10">
      <g>
       <use xlink:href="#mb5e9beed29" x="222.877666" y="561.718594" style="fill: #262626; stroke: #262626; stroke-width: 1.5"/>
      </g>
     </g>
    </g>
    <g id="xtick_11">
     <g id="line2d_11">
      <g>
       <use xlink:href="#mb5e9beed29" x="229.739662" y="561.718594" style="fill: #262626; stroke: #262626; stroke-width: 1.5"/>
      </g>
     </g>
    </g>
    <g id="xtick_12">
     <g id="line2d_12">
      <g>
       <use xlink:href="#mb5e9beed29" x="235.792371" y="561.718594" style="fill: #262626; stroke: #262626; stroke-width: 1.5"/>
      </g>
     </g>
    </g>
    <g id="xtick_13">
     <g id="line2d_13">
      <g>
       <use xlink:href="#mb5e9beed29" x="276.826592" y="561.718594" style="fill: #262626; stroke: #262626; stroke-width: 1.5"/>
      </g>
     </g>
    </g>
    <g id="xtick_14">
     <g id="line2d_14">
      <g>
       <use xlink:href="#mb5e9beed29" x="297.66289" y="561.718594" style="fill: #262626; stroke: #262626; stroke-width: 1.5"/>
      </g>
     </g>
    </g>
    <g id="xtick_15">
     <g id="line2d_15">
      <g>
       <use xlink:href="#mb5e9beed29" x="312.446479" y="561.718594" style="fill: #262626; stroke: #262626; stroke-width: 1.5"/>
      </g>
     </g>
    </g>
    <g id="xtick_16">
     <g id="line2d_16">
      <g>
       <use xlink:href="#mb5e9beed29" x="323.913521" y="561.718594" style="fill: #262626; stroke: #262626; stroke-width: 1.5"/>
      </g>
     </g>
    </g>
    <g id="xtick_17">
     <g id="line2d_17">
      <g>
       <use xlink:href="#mb5e9beed29" x="333.282777" y="561.718594" style="fill: #262626; stroke: #262626; stroke-width: 1.5"/>
      </g>
     </g>
    </g>
    <g id="xtick_18">
     <g id="line2d_18">
      <g>
       <use xlink:href="#mb5e9beed29" x="341.20437" y="561.718594" style="fill: #262626; stroke: #262626; stroke-width: 1.5"/>
      </g>
     </g>
    </g>
    <g id="xtick_19">
     <g id="line2d_19">
      <g>
       <use xlink:href="#mb5e9beed29" x="348.066366" y="561.718594" style="fill: #262626; stroke: #262626; stroke-width: 1.5"/>
      </g>
     </g>
    </g>
    <g id="xtick_20">
     <g id="line2d_20">
      <g>
       <use xlink:href="#mb5e9beed29" x="354.119075" y="561.718594" style="fill: #262626; stroke: #262626; stroke-width: 1.5"/>
      </g>
     </g>
    </g>
    <g id="xtick_21">
     <g id="line2d_21">
      <g>
       <use xlink:href="#mb5e9beed29" x="395.153296" y="561.718594" style="fill: #262626; stroke: #262626; stroke-width: 1.5"/>
      </g>
     </g>
    </g>
    <g id="xtick_22">
     <g id="line2d_22">
      <g>
       <use xlink:href="#mb5e9beed29" x="415.989594" y="561.718594" style="fill: #262626; stroke: #262626; stroke-width: 1.5"/>
      </g>
     </g>
    </g>
    <g id="xtick_23">
     <g id="line2d_23">
      <g>
       <use xlink:href="#mb5e9beed29" x="430.773183" y="561.718594" style="fill: #262626; stroke: #262626; stroke-width: 1.5"/>
      </g>
     </g>
    </g>
    <g id="xtick_24">
     <g id="line2d_24">
      <g>
       <use xlink:href="#mb5e9beed29" x="442.240225" y="561.718594" style="fill: #262626; stroke: #262626; stroke-width: 1.5"/>
      </g>
     </g>
    </g>
    <g id="xtick_25">
     <g id="line2d_25">
      <g>
       <use xlink:href="#mb5e9beed29" x="451.609481" y="561.718594" style="fill: #262626; stroke: #262626; stroke-width: 1.5"/>
      </g>
     </g>
    </g>
    <g id="xtick_26">
     <g id="line2d_26">
      <g>
       <use xlink:href="#mb5e9beed29" x="459.531074" y="561.718594" style="fill: #262626; stroke: #262626; stroke-width: 1.5"/>
      </g>
     </g>
    </g>
    <g id="xtick_27">
     <g id="line2d_27">
      <g>
       <use xlink:href="#mb5e9beed29" x="466.39307" y="561.718594" style="fill: #262626; stroke: #262626; stroke-width: 1.5"/>
      </g>
     </g>
    </g>
    <g id="xtick_28">
     <g id="line2d_28">
      <g>
       <use xlink:href="#mb5e9beed29" x="472.44578" y="561.718594" style="fill: #262626; stroke: #262626; stroke-width: 1.5"/>
      </g>
     </g>
    </g>
    <g id="xtick_29">
     <g id="line2d_29">
      <g>
       <use xlink:href="#mb5e9beed29" x="513.48" y="561.718594" style="fill: #262626; stroke: #262626; stroke-width: 1.5"/>
      </g>
     </g>
    </g>
    <g id="text_5">
     <!-- $\eta$ fidelity -->
     <g style="fill: #262626" transform="translate(250.68 645.088594) scale(0.36 -0.36)">
      <defs>
       <path id="DejaVuSans-Oblique-3b7" d="M 3703 2113 
L 3034 -1331 
L 2459 -1331 
L 3125 2094 
Q 3222 2591 3075 2838 
Q 2931 3084 2544 3084 
Q 2078 3084 1750 2788 
Q 1425 2491 1325 1978 
L 941 0 
L 363 0 
L 1044 3500 
L 1622 3500 
L 1516 2956 
Q 1781 3272 2094 3428 
Q 2403 3584 2769 3584 
Q 3372 3584 3609 3213 
Q 3844 2838 3703 2113 
z
" transform="scale(0.015625)"/>
       <path id="ArialMT-20" transform="scale(0.015625)"/>
       <path id="ArialMT-66" d="M 556 0 
L 556 2881 
L 59 2881 
L 59 3319 
L 556 3319 
L 556 3672 
Q 556 4006 616 4169 
Q 697 4388 901 4523 
Q 1106 4659 1475 4659 
Q 1713 4659 2000 4603 
L 1916 4113 
Q 1741 4144 1584 4144 
Q 1328 4144 1222 4034 
Q 1116 3925 1116 3625 
L 1116 3319 
L 1763 3319 
L 1763 2881 
L 1116 2881 
L 1116 0 
L 556 0 
z
" transform="scale(0.015625)"/>
       <path id="ArialMT-69" d="M 425 3934 
L 425 4581 
L 988 4581 
L 988 3934 
L 425 3934 
z
M 425 0 
L 425 3319 
L 988 3319 
L 988 0 
L 425 0 
z
" transform="scale(0.015625)"/>
       <path id="ArialMT-64" d="M 2575 0 
L 2575 419 
Q 2259 -75 1647 -75 
Q 1250 -75 917 144 
Q 584 363 401 755 
Q 219 1147 219 1656 
Q 219 2153 384 2558 
Q 550 2963 881 3178 
Q 1213 3394 1622 3394 
Q 1922 3394 2156 3267 
Q 2391 3141 2538 2938 
L 2538 4581 
L 3097 4581 
L 3097 0 
L 2575 0 
z
M 797 1656 
Q 797 1019 1065 703 
Q 1334 388 1700 388 
Q 2069 388 2326 689 
Q 2584 991 2584 1609 
Q 2584 2291 2321 2609 
Q 2059 2928 1675 2928 
Q 1300 2928 1048 2622 
Q 797 2316 797 1656 
z
" transform="scale(0.015625)"/>
       <path id="ArialMT-65" d="M 2694 1069 
L 3275 997 
Q 3138 488 2766 206 
Q 2394 -75 1816 -75 
Q 1088 -75 661 373 
Q 234 822 234 1631 
Q 234 2469 665 2931 
Q 1097 3394 1784 3394 
Q 2450 3394 2872 2941 
Q 3294 2488 3294 1666 
Q 3294 1616 3291 1516 
L 816 1516 
Q 847 969 1125 678 
Q 1403 388 1819 388 
Q 2128 388 2347 550 
Q 2566 713 2694 1069 
z
M 847 1978 
L 2700 1978 
Q 2663 2397 2488 2606 
Q 2219 2931 1791 2931 
Q 1403 2931 1139 2672 
Q 875 2413 847 1978 
z
" transform="scale(0.015625)"/>
       <path id="ArialMT-6c" d="M 409 0 
L 409 4581 
L 972 4581 
L 972 0 
L 409 0 
z
" transform="scale(0.015625)"/>
       <path id="ArialMT-74" d="M 1650 503 
L 1731 6 
Q 1494 -44 1306 -44 
Q 1000 -44 831 53 
Q 663 150 594 308 
Q 525 466 525 972 
L 525 2881 
L 113 2881 
L 113 3319 
L 525 3319 
L 525 4141 
L 1084 4478 
L 1084 3319 
L 1650 3319 
L 1650 2881 
L 1084 2881 
L 1084 941 
Q 1084 700 1114 631 
Q 1144 563 1211 522 
Q 1278 481 1403 481 
Q 1497 481 1650 503 
z
" transform="scale(0.015625)"/>
       <path id="ArialMT-79" d="M 397 -1278 
L 334 -750 
Q 519 -800 656 -800 
Q 844 -800 956 -737 
Q 1069 -675 1141 -563 
Q 1194 -478 1313 -144 
Q 1328 -97 1363 -6 
L 103 3319 
L 709 3319 
L 1400 1397 
Q 1534 1031 1641 628 
Q 1738 1016 1872 1384 
L 2581 3319 
L 3144 3319 
L 1881 -56 
Q 1678 -603 1566 -809 
Q 1416 -1088 1222 -1217 
Q 1028 -1347 759 -1347 
Q 597 -1347 397 -1278 
z
" transform="scale(0.015625)"/>
      </defs>
      <use xlink:href="#DejaVuSans-Oblique-3b7" transform="translate(0 0.203125)"/>
      <use xlink:href="#ArialMT-20" transform="translate(63.378906 0.203125)"/>
      <use xlink:href="#ArialMT-66" transform="translate(91.162109 0.203125)"/>
      <use xlink:href="#ArialMT-69" transform="translate(118.945312 0.203125)"/>
      <use xlink:href="#ArialMT-64" transform="translate(141.162109 0.203125)"/>
      <use xlink:href="#ArialMT-65" transform="translate(196.777344 0.203125)"/>
      <use xlink:href="#ArialMT-6c" transform="translate(252.392578 0.203125)"/>
      <use xlink:href="#ArialMT-69" transform="translate(274.609375 0.203125)"/>
      <use xlink:href="#ArialMT-74" transform="translate(296.826172 0.203125)"/>
      <use xlink:href="#ArialMT-79" transform="translate(324.609375 0.203125)"/>
     </g>
    </g>
   </g>
   <g id="matplotlib.axis_2">
    <g id="ytick_1">
     <g id="line2d_30">
      <defs>
       <path id="mcb20450b9b" d="M 0 0 
L -9 0 
" style="stroke: #262626; stroke-width: 1.875"/>
      </defs>
      <g>
       <use xlink:href="#mcb20450b9b" x="122.88" y="561.718594" style="fill: #262626; stroke: #262626; stroke-width: 1.875"/>
      </g>
     </g>
     <g id="text_6">
      <!-- $\mathdefault{10^{-3}}$ -->
      <g style="fill: #262626" transform="translate(45.04 578.734219) scale(0.33 -0.33)">
       <use xlink:href="#ArialMT-31" transform="translate(0 0.99375)"/>
       <use xlink:href="#ArialMT-30" transform="translate(55.615234 0.99375)"/>
       <use xlink:href="#ArialMT-2212" transform="translate(112.972813 70.6875) scale(0.7)"/>
       <use xlink:href="#ArialMT-33" transform="translate(153.851719 70.6875) scale(0.7)"/>
      </g>
     </g>
    </g>
    <g id="ytick_2">
     <g id="line2d_31">
      <g>
       <use xlink:href="#mcb20450b9b" x="122.88" y="444.155288" style="fill: #262626; stroke: #262626; stroke-width: 1.875"/>
      </g>
     </g>
     <g id="text_7">
      <!-- $\mathdefault{10^{-2}}$ -->
      <g style="fill: #262626" transform="translate(45.04 461.170913) scale(0.33 -0.33)">
       <use xlink:href="#ArialMT-31" transform="translate(0 0.99375)"/>
       <use xlink:href="#ArialMT-30" transform="translate(55.615234 0.99375)"/>
       <use xlink:href="#ArialMT-2212" transform="translate(112.972813 70.6875) scale(0.7)"/>
       <use xlink:href="#ArialMT-32" transform="translate(153.851719 70.6875) scale(0.7)"/>
      </g>
     </g>
    </g>
    <g id="ytick_3">
     <g id="line2d_32">
      <g>
       <use xlink:href="#mcb20450b9b" x="122.88" y="326.591981" style="fill: #262626; stroke: #262626; stroke-width: 1.875"/>
      </g>
     </g>
     <g id="text_8">
      <!-- $\mathdefault{10^{-1}}$ -->
      <g style="fill: #262626" transform="translate(45.04 343.607606) scale(0.33 -0.33)">
       <use xlink:href="#ArialMT-31" transform="translate(0 0.99375)"/>
       <use xlink:href="#ArialMT-30" transform="translate(55.615234 0.99375)"/>
       <use xlink:href="#ArialMT-2212" transform="translate(112.972813 70.6875) scale(0.7)"/>
       <use xlink:href="#ArialMT-31" transform="translate(153.851719 70.6875) scale(0.7)"/>
      </g>
     </g>
    </g>
    <g id="ytick_4">
     <g id="line2d_33">
      <g>
       <use xlink:href="#mcb20450b9b" x="122.88" y="209.028675" style="fill: #262626; stroke: #262626; stroke-width: 1.875"/>
      </g>
     </g>
     <g id="text_9">
      <!-- $\mathdefault{10^{0}}$ -->
      <g style="fill: #262626" transform="translate(58.57 226.0443) scale(0.33 -0.33)">
       <use xlink:href="#ArialMT-31" transform="translate(0 0.99375)"/>
       <use xlink:href="#ArialMT-30" transform="translate(55.615234 0.99375)"/>
       <use xlink:href="#ArialMT-30" transform="translate(112.972813 70.6875) scale(0.7)"/>
      </g>
     </g>
    </g>
    <g id="ytick_5">
     <g id="line2d_34">
      <defs>
       <path id="m0df0cd0ebe" d="M 0 0 
L -6 0 
" style="stroke: #262626; stroke-width: 1.5"/>
      </defs>
      <g>
       <use xlink:href="#m0df0cd0ebe" x="122.88" y="526.328512" style="fill: #262626; stroke: #262626; stroke-width: 1.5"/>
      </g>
     </g>
    </g>
    <g id="ytick_6">
     <g id="line2d_35">
      <g>
       <use xlink:href="#m0df0cd0ebe" x="122.88" y="505.626642" style="fill: #262626; stroke: #262626; stroke-width: 1.5"/>
      </g>
     </g>
    </g>
    <g id="ytick_7">
     <g id="line2d_36">
      <g>
       <use xlink:href="#m0df0cd0ebe" x="122.88" y="490.938431" style="fill: #262626; stroke: #262626; stroke-width: 1.5"/>
      </g>
     </g>
    </g>
    <g id="ytick_8">
     <g id="line2d_37">
      <g>
       <use xlink:href="#m0df0cd0ebe" x="122.88" y="479.545369" style="fill: #262626; stroke: #262626; stroke-width: 1.5"/>
      </g>
     </g>
    </g>
    <g id="ytick_9">
     <g id="line2d_38">
      <g>
       <use xlink:href="#m0df0cd0ebe" x="122.88" y="470.23656" style="fill: #262626; stroke: #262626; stroke-width: 1.5"/>
      </g>
     </g>
    </g>
    <g id="ytick_10">
     <g id="line2d_39">
      <g>
       <use xlink:href="#m0df0cd0ebe" x="122.88" y="462.366074" style="fill: #262626; stroke: #262626; stroke-width: 1.5"/>
      </g>
     </g>
    </g>
    <g id="ytick_11">
     <g id="line2d_40">
      <g>
       <use xlink:href="#m0df0cd0ebe" x="122.88" y="455.548349" style="fill: #262626; stroke: #262626; stroke-width: 1.5"/>
      </g>
     </g>
    </g>
    <g id="ytick_12">
     <g id="line2d_41">
      <g>
       <use xlink:href="#m0df0cd0ebe" x="122.88" y="449.534689" style="fill: #262626; stroke: #262626; stroke-width: 1.5"/>
      </g>
     </g>
    </g>
    <g id="ytick_13">
     <g id="line2d_42">
      <g>
       <use xlink:href="#m0df0cd0ebe" x="122.88" y="408.765206" style="fill: #262626; stroke: #262626; stroke-width: 1.5"/>
      </g>
     </g>
    </g>
    <g id="ytick_14">
     <g id="line2d_43">
      <g>
       <use xlink:href="#m0df0cd0ebe" x="122.88" y="388.063335" style="fill: #262626; stroke: #262626; stroke-width: 1.5"/>
      </g>
     </g>
    </g>
    <g id="ytick_15">
     <g id="line2d_44">
      <g>
       <use xlink:href="#m0df0cd0ebe" x="122.88" y="373.375125" style="fill: #262626; stroke: #262626; stroke-width: 1.5"/>
      </g>
     </g>
    </g>
    <g id="ytick_16">
     <g id="line2d_45">
      <g>
       <use xlink:href="#m0df0cd0ebe" x="122.88" y="361.982063" style="fill: #262626; stroke: #262626; stroke-width: 1.5"/>
      </g>
     </g>
    </g>
    <g id="ytick_17">
     <g id="line2d_46">
      <g>
       <use xlink:href="#m0df0cd0ebe" x="122.88" y="352.673254" style="fill: #262626; stroke: #262626; stroke-width: 1.5"/>
      </g>
     </g>
    </g>
    <g id="ytick_18">
     <g id="line2d_47">
      <g>
       <use xlink:href="#m0df0cd0ebe" x="122.88" y="344.802768" style="fill: #262626; stroke: #262626; stroke-width: 1.5"/>
      </g>
     </g>
    </g>
    <g id="ytick_19">
     <g id="line2d_48">
      <g>
       <use xlink:href="#m0df0cd0ebe" x="122.88" y="337.985043" style="fill: #262626; stroke: #262626; stroke-width: 1.5"/>
      </g>
     </g>
    </g>
    <g id="ytick_20">
     <g id="line2d_49">
      <g>
       <use xlink:href="#m0df0cd0ebe" x="122.88" y="331.971383" style="fill: #262626; stroke: #262626; stroke-width: 1.5"/>
      </g>
     </g>
    </g>
    <g id="ytick_21">
     <g id="line2d_50">
      <g>
       <use xlink:href="#m0df0cd0ebe" x="122.88" y="291.2019" style="fill: #262626; stroke: #262626; stroke-width: 1.5"/>
      </g>
     </g>
    </g>
    <g id="ytick_22">
     <g id="line2d_51">
      <g>
       <use xlink:href="#m0df0cd0ebe" x="122.88" y="270.500029" style="fill: #262626; stroke: #262626; stroke-width: 1.5"/>
      </g>
     </g>
    </g>
    <g id="ytick_23">
     <g id="line2d_52">
      <g>
       <use xlink:href="#m0df0cd0ebe" x="122.88" y="255.811818" style="fill: #262626; stroke: #262626; stroke-width: 1.5"/>
      </g>
     </g>
    </g>
    <g id="ytick_24">
     <g id="line2d_53">
      <g>
       <use xlink:href="#m0df0cd0ebe" x="122.88" y="244.418757" style="fill: #262626; stroke: #262626; stroke-width: 1.5"/>
      </g>
     </g>
    </g>
    <g id="ytick_25">
     <g id="line2d_54">
      <g>
       <use xlink:href="#m0df0cd0ebe" x="122.88" y="235.109948" style="fill: #262626; stroke: #262626; stroke-width: 1.5"/>
      </g>
     </g>
    </g>
    <g id="ytick_26">
     <g id="line2d_55">
      <g>
       <use xlink:href="#m0df0cd0ebe" x="122.88" y="227.239462" style="fill: #262626; stroke: #262626; stroke-width: 1.5"/>
      </g>
     </g>
    </g>
    <g id="ytick_27">
     <g id="line2d_56">
      <g>
       <use xlink:href="#m0df0cd0ebe" x="122.88" y="220.421737" style="fill: #262626; stroke: #262626; stroke-width: 1.5"/>
      </g>
     </g>
    </g>
    <g id="ytick_28">
     <g id="line2d_57">
      <g>
       <use xlink:href="#m0df0cd0ebe" x="122.88" y="214.408077" style="fill: #262626; stroke: #262626; stroke-width: 1.5"/>
      </g>
     </g>
    </g>
    <g id="ytick_29">
     <g id="line2d_58">
      <g>
       <use xlink:href="#m0df0cd0ebe" x="122.88" y="173.638594" style="fill: #262626; stroke: #262626; stroke-width: 1.5"/>
      </g>
     </g>
    </g>
    <g id="text_10">
     <!-- $c$ activity -->
     <g style="fill: #262626" transform="translate(33.12 437.698594) rotate(-90) scale(0.36 -0.36)">
      <defs>
       <path id="DejaVuSans-Oblique-63" d="M 3431 3366 
L 3316 2797 
Q 3109 2947 2876 3022 
Q 2644 3097 2394 3097 
Q 2119 3097 1870 3000 
Q 1622 2903 1453 2725 
Q 1184 2453 1037 2087 
Q 891 1722 891 1331 
Q 891 859 1127 628 
Q 1363 397 1844 397 
Q 2081 397 2348 469 
Q 2616 541 2906 684 
L 2797 116 
Q 2547 13 2283 -39 
Q 2019 -91 1741 -91 
Q 1044 -91 669 257 
Q 294 606 294 1253 
Q 294 1797 489 2255 
Q 684 2713 1069 3078 
Q 1331 3328 1684 3456 
Q 2038 3584 2456 3584 
Q 2700 3584 2940 3529 
Q 3181 3475 3431 3366 
z
" transform="scale(0.015625)"/>
       <path id="ArialMT-61" d="M 2588 409 
Q 2275 144 1986 34 
Q 1697 -75 1366 -75 
Q 819 -75 525 192 
Q 231 459 231 875 
Q 231 1119 342 1320 
Q 453 1522 633 1644 
Q 813 1766 1038 1828 
Q 1203 1872 1538 1913 
Q 2219 1994 2541 2106 
Q 2544 2222 2544 2253 
Q 2544 2597 2384 2738 
Q 2169 2928 1744 2928 
Q 1347 2928 1158 2789 
Q 969 2650 878 2297 
L 328 2372 
Q 403 2725 575 2942 
Q 747 3159 1072 3276 
Q 1397 3394 1825 3394 
Q 2250 3394 2515 3294 
Q 2781 3194 2906 3042 
Q 3031 2891 3081 2659 
Q 3109 2516 3109 2141 
L 3109 1391 
Q 3109 606 3145 398 
Q 3181 191 3288 0 
L 2700 0 
Q 2613 175 2588 409 
z
M 2541 1666 
Q 2234 1541 1622 1453 
Q 1275 1403 1131 1340 
Q 988 1278 909 1158 
Q 831 1038 831 891 
Q 831 666 1001 516 
Q 1172 366 1500 366 
Q 1825 366 2078 508 
Q 2331 650 2450 897 
Q 2541 1088 2541 1459 
L 2541 1666 
z
" transform="scale(0.015625)"/>
       <path id="ArialMT-63" d="M 2588 1216 
L 3141 1144 
Q 3050 572 2676 248 
Q 2303 -75 1759 -75 
Q 1078 -75 664 370 
Q 250 816 250 1647 
Q 250 2184 428 2587 
Q 606 2991 970 3192 
Q 1334 3394 1763 3394 
Q 2303 3394 2647 3120 
Q 2991 2847 3088 2344 
L 2541 2259 
Q 2463 2594 2264 2762 
Q 2066 2931 1784 2931 
Q 1359 2931 1093 2626 
Q 828 2322 828 1663 
Q 828 994 1084 691 
Q 1341 388 1753 388 
Q 2084 388 2306 591 
Q 2528 794 2588 1216 
z
" transform="scale(0.015625)"/>
       <path id="ArialMT-76" d="M 1344 0 
L 81 3319 
L 675 3319 
L 1388 1331 
Q 1503 1009 1600 663 
Q 1675 925 1809 1294 
L 2547 3319 
L 3125 3319 
L 1869 0 
L 1344 0 
z
" transform="scale(0.015625)"/>
      </defs>
      <use xlink:href="#DejaVuSans-Oblique-63" transform="translate(0 0.421875)"/>
      <use xlink:href="#ArialMT-20" transform="translate(54.980469 0.421875)"/>
      <use xlink:href="#ArialMT-61" transform="translate(82.763672 0.421875)"/>
      <use xlink:href="#ArialMT-63" transform="translate(138.378906 0.421875)"/>
      <use xlink:href="#ArialMT-74" transform="translate(188.378906 0.421875)"/>
      <use xlink:href="#ArialMT-69" transform="translate(216.162109 0.421875)"/>
      <use xlink:href="#ArialMT-76" transform="translate(238.378906 0.421875)"/>
      <use xlink:href="#ArialMT-69" transform="translate(288.378906 0.421875)"/>
      <use xlink:href="#ArialMT-74" transform="translate(310.595703 0.421875)"/>
      <use xlink:href="#ArialMT-79" transform="translate(338.378906 0.421875)"/>
     </g>
    </g>
   </g>
   <g id="line2d_59">
    <path d="M 474.557512 561.718594 
L 473.634403 537.005586 
L 472.597932 515.116923 
L 471.460879 495.69956 
L 470.207294 478.047412 
L 468.861101 462.160479 
L 467.418786 447.685717 
L 465.864076 434.270085 
L 464.214162 421.913581 
L 462.435175 410.263163 
L 460.600023 399.671874 
L 458.671707 389.786672 
L 456.586535 380.254512 
L 454.430303 371.428438 
L 452.128005 362.955406 
L 449.790838 355.188461 
L 447.331076 347.774559 
L 444.754064 340.7137 
L 442.067289 334.005884 
L 439.280635 327.65111 
L 436.406631 321.64938 
L 433.460707 316.000693 
L 430.461407 310.705048 
L 427.204863 305.409404 
L 423.905655 300.466802 
L 420.590808 295.877244 
L 417.005232 291.287685 
L 413.42677 287.05117 
L 409.55916 282.814654 
L 405.729324 278.931182 
L 401.593887 275.047709 
L 397.114335 271.164237 
L 392.704881 267.633807 
L 387.931843 264.103377 
L 383.284521 260.925991 
L 378.259407 257.748604 
L 372.804416 254.571217 
L 367.543707 251.746874 
L 361.83924 248.92253 
L 355.624846 246.098186 
L 348.818601 243.273843 
L 342.297235 240.802542 
L 335.157234 238.331241 
L 327.288583 235.85994 
L 319.857589 233.741683 
L 311.672384 231.623425 
L 302.583546 229.505167 
L 292.392584 227.386909 
L 282.865214 225.621694 
L 272.170603 223.85648 
L 260.011534 222.091265 
L 248.949093 220.679093 
L 236.367042 219.266921 
L 221.812455 217.854749 
L 204.594144 216.442577 
L 189.277972 215.383449 
L 171.067396 214.32432 
L 148.662169 213.265191 
L 119.624769 212.206062 
L 94.149056 211.499976 
L 59.921465 210.79389 
L 7.774719 210.087804 
L -1 210.013148 
L -1 210.013148 
" clip-path="url(#p6f5a257184)" style="fill: none; stroke: #0d0887; stroke-width: 3; stroke-linecap: round"/>
   </g>
   <g id="line2d_60">
    <path d="M 461.617114 561.718594 
L 459.689176 545.478618 
L 457.666685 530.29777 
L 455.513362 515.823009 
L 453.296283 502.407376 
L 450.97507 489.69783 
L 448.561938 477.694369 
L 446.072059 466.396994 
L 443.434899 455.452662 
L 440.74526 445.214416 
L 437.922061 435.329214 
L 434.966716 425.797054 
L 431.881778 416.617937 
L 428.804409 408.144906 
L 425.627357 400.024917 
L 422.359107 392.257972 
L 419.009839 384.84407 
L 415.414405 377.430168 
L 411.738878 370.369309 
L 407.997728 363.661492 
L 404.207662 357.306719 
L 400.155289 350.951946 
L 396.063902 344.950215 
L 391.956156 339.301528 
L 387.575144 333.652841 
L 383.195918 328.357196 
L 378.527669 323.061552 
L 373.884461 318.11895 
L 368.937506 313.176349 
L 364.045086 308.58679 
L 358.835988 303.997232 
L 353.277728 299.407673 
L 347.804729 295.171158 
L 341.968071 290.934642 
L 335.728095 286.698127 
L 329.614378 282.814654 
L 323.081179 278.931182 
L 316.079597 275.047709 
L 309.259635 271.517279 
L 301.953568 267.98685 
L 294.100498 264.45642 
L 286.505068 261.279034 
L 278.343979 258.101647 
L 269.540717 254.92426 
L 261.101757 252.099917 
L 252.002818 249.275573 
L 242.147151 246.451229 
L 231.415204 243.626886 
L 221.188844 241.155585 
L 210.050886 238.684284 
L 197.841935 236.212983 
L 184.356931 233.741683 
L 171.580372 231.623425 
L 157.445304 229.505167 
L 141.653986 227.386909 
L 126.939862 225.621694 
L 110.472748 223.85648 
L 91.806817 222.091265 
L 70.301268 220.32605 
L 50.417762 218.913878 
L 27.356556 217.501706 
L -0.046546 216.089535 
L -1 216.045996 
L -1 216.045996 
" clip-path="url(#p6f5a257184)" style="fill: none; stroke: #6a00a8; stroke-width: 3; stroke-linecap: round"/>
   </g>
   <g id="line2d_61">
    <path d="M 437.611385 561.718594 
L 434.653637 548.656004 
L 431.632553 536.299501 
L 428.470258 524.29604 
L 425.270167 512.998665 
L 421.944238 502.054333 
L 418.494994 491.463044 
L 414.925895 481.224799 
L 411.241433 471.339596 
L 407.447211 461.807436 
L 403.550044 452.628319 
L 399.55804 443.802245 
L 395.480699 435.329214 
L 391.328993 427.209225 
L 387.115447 419.44228 
L 382.645145 411.675335 
L 378.1185 404.261433 
L 373.552025 397.200574 
L 368.715557 390.139714 
L 363.849933 383.431898 
L 358.976527 377.077125 
L 353.825009 370.722352 
L 348.68313 364.720621 
L 343.249942 358.718891 
L 337.847901 353.070204 
L 332.142285 347.421516 
L 326.106744 341.772829 
L 320.122345 336.477184 
L 313.794044 331.18154 
L 307.549649 326.238938 
L 300.949281 321.296337 
L 293.960001 316.353736 
L 287.088935 311.764177 
L 279.81577 307.174619 
L 272.101171 302.58506 
L 264.549154 298.348545 
L 256.541484 294.112029 
L 248.030858 289.875513 
L 239.740849 285.992041 
L 230.932963 282.108568 
L 221.549951 278.225096 
L 212.464559 274.694666 
L 202.789242 271.164237 
L 192.454354 267.633807 
L 181.377255 264.103377 
L 170.691796 260.925991 
L 159.238513 257.748604 
L 146.913213 254.571217 
L 135.123423 251.746874 
L 122.436395 248.92253 
L 108.719778 246.098186 
L 93.809712 243.273843 
L 79.623595 240.802542 
L 64.192728 238.331241 
L 47.297076 235.85994 
L 28.652694 233.38864 
L 10.998772 231.270382 
L -1 229.9429 
L -1 229.9429 
" clip-path="url(#p6f5a257184)" style="fill: none; stroke: #b12a90; stroke-width: 3; stroke-linecap: round"/>
   </g>
   <g id="patch_3">
    <path d="M 122.88 561.718594 
L 122.88 173.638594 
" style="fill: none; stroke: #262626; stroke-width: 1.875; stroke-linejoin: miter; stroke-linecap: square"/>
   </g>
   <g id="patch_4">
    <path d="M 513.48 561.718594 
L 513.48 173.638594 
" style="fill: none; stroke: #262626; stroke-width: 1.875; stroke-linejoin: miter; stroke-linecap: square"/>
   </g>
   <g id="patch_5">
    <path d="M 122.88 561.718594 
L 513.48 561.718594 
" style="fill: none; stroke: #262626; stroke-width: 1.875; stroke-linejoin: miter; stroke-linecap: square"/>
   </g>
   <g id="patch_6">
    <path d="M 122.88 173.638594 
L 513.48 173.638594 
" style="fill: none; stroke: #262626; stroke-width: 1.875; stroke-linejoin: miter; stroke-linecap: square"/>
   </g>
   <g id="legend_1">
    <g id="patch_7">
     <path d="M 145.98 157.138594 
L 296.537344 157.138594 
Q 303.137344 157.138594 303.137344 150.538594 
L 303.137344 13.8 
Q 303.137344 7.2 296.537344 7.2 
L 145.98 7.2 
Q 139.38 7.2 139.38 13.8 
L 139.38 150.538594 
Q 139.38 157.138594 145.98 157.138594 
z
" style="fill: #ffffff; opacity: 0.8; stroke: #cccccc; stroke-width: 1.5; stroke-linejoin: miter"/>
    </g>
    <g id="line2d_62">
     <path d="M 152.58 32.470781 
L 185.58 32.470781 
L 218.58 32.470781 
" style="fill: none; stroke: #0d0887; stroke-width: 3; stroke-linecap: round"/>
    </g>
    <g id="text_11">
     <!-- i=1 -->
     <g style="fill: #262626" transform="translate(244.98 44.020781) scale(0.33 -0.33)">
      <defs>
       <path id="ArialMT-3d" d="M 3381 2694 
L 356 2694 
L 356 3219 
L 3381 3219 
L 3381 2694 
z
M 3381 1303 
L 356 1303 
L 356 1828 
L 3381 1828 
L 3381 1303 
z
" transform="scale(0.015625)"/>
      </defs>
      <use xlink:href="#ArialMT-69"/>
      <use xlink:href="#ArialMT-3d" x="22.216797"/>
      <use xlink:href="#ArialMT-31" x="80.615234"/>
     </g>
    </g>
    <g id="line2d_63">
     <path d="M 152.58 79.150312 
L 185.58 79.150312 
L 218.58 79.150312 
" style="fill: none; stroke: #6a00a8; stroke-width: 3; stroke-linecap: round"/>
    </g>
    <g id="text_12">
     <!-- i=2 -->
     <g style="fill: #262626" transform="translate(244.98 90.700312) scale(0.33 -0.33)">
      <use xlink:href="#ArialMT-69"/>
      <use xlink:href="#ArialMT-3d" x="22.216797"/>
      <use xlink:href="#ArialMT-32" x="80.615234"/>
     </g>
    </g>
    <g id="line2d_64">
     <path d="M 152.58 125.829844 
L 185.58 125.829844 
L 218.58 125.829844 
" style="fill: none; stroke: #b12a90; stroke-width: 3; stroke-linecap: round"/>
    </g>
    <g id="text_13">
     <!-- i=3 -->
     <g style="fill: #262626" transform="translate(244.98 137.379844) scale(0.33 -0.33)">
      <use xlink:href="#ArialMT-69"/>
      <use xlink:href="#ArialMT-3d" x="22.216797"/>
      <use xlink:href="#ArialMT-33" x="80.615234"/>
     </g>
    </g>
   </g>
  </g>
 </g>
 <defs>
  <clipPath id="p6f5a257184">
   <rect x="122.88" y="173.638594" width="390.6" height="388.08"/>
  </clipPath>
 </defs>
</svg>
