<?xml version="1.0" encoding="utf-8" standalone="no"?>
<!DOCTYPE svg PUBLIC "-//W3C//DTD SVG 1.1//EN"
  "http://www.w3.org/Graphics/SVG/1.1/DTD/svg11.dtd">
<svg xmlns:xlink="http://www.w3.org/1999/xlink" width="533.55pt" height="753.567656pt" viewBox="0 0 533.55 753.567656" xmlns="http://www.w3.org/2000/svg" version="1.1">
 <metadata>
  <rdf:RDF xmlns:dc="http://purl.org/dc/elements/1.1/" xmlns:cc="http://creativecommons.org/ns#" xmlns:rdf="http://www.w3.org/1999/02/22-rdf-syntax-ns#">
   <cc:Work>
    <dc:type rdf:resource="http://purl.org/dc/dcmitype/StillImage"/>
    <dc:date>2025-06-12T14:01:09.553070</dc:date>
    <dc:format>image/svg+xml</dc:format>
    <dc:creator>
     <cc:Agent>
      <dc:title>Matplotlib v3.8.0, https://matplotlib.org/</dc:title>
     </cc:Agent>
    </dc:creator>
   </cc:Work>
  </rdf:RDF>
 </metadata>
 <defs>
  <style type="text/css">*{stroke-linejoin: round; stroke-linecap: butt}</style>
 </defs>
 <g id="figure_1">
  <g id="patch_1">
   <path d="M 0 753.567656 
L 533.55 753.567656 
L 533.55 0 
L 0 0 
L 0 753.567656 
z
" style="fill: none"/>
  </g>
  <g id="axes_1">
   <g id="patch_2">
    <path d="M 135.75 655.077656 
L 526.35 655.077656 
L 526.35 266.997656 
L 135.75 266.997656 
L 135.75 655.077656 
z
" style="fill: none"/>
   </g>
   <g id="matplotlib.axis_1">
    <g id="xtick_1">
     <g id="line2d_1">
      <defs>
       <path id="m510e7c623e" d="M 0 0 
L 0 9 
" style="stroke: #262626; stroke-width: 1.875"/>
      </defs>
      <g>
       <use xlink:href="#m510e7c623e" x="135.75" y="655.077656" style="fill: #262626; stroke: #262626; stroke-width: 1.875"/>
      </g>
     </g>
     <g id="text_1">
      <!-- $\mathdefault{10^{-10}}$ -->
      <g style="fill: #262626" transform="translate(96.645 701.608906) scale(0.33 -0.33)">
       <defs>
        <path id="ArialMT-31" d="M 2384 0 
L 1822 0 
L 1822 3584 
Q 1619 3391 1289 3197 
Q 959 3003 697 2906 
L 697 3450 
Q 1169 3672 1522 3987 
Q 1875 4303 2022 4600 
L 2384 4600 
L 2384 0 
z
" transform="scale(0.015625)"/>
        <path id="ArialMT-30" d="M 266 2259 
Q 266 3072 433 3567 
Q 600 4063 929 4331 
Q 1259 4600 1759 4600 
Q 2128 4600 2406 4451 
Q 2684 4303 2865 4023 
Q 3047 3744 3150 3342 
Q 3253 2941 3253 2259 
Q 3253 1453 3087 958 
Q 2922 463 2592 192 
Q 2263 -78 1759 -78 
Q 1097 -78 719 397 
Q 266 969 266 2259 
z
M 844 2259 
Q 844 1131 1108 757 
Q 1372 384 1759 384 
Q 2147 384 2411 759 
Q 2675 1134 2675 2259 
Q 2675 3391 2411 3762 
Q 2147 4134 1753 4134 
Q 1366 4134 1134 3806 
Q 844 3388 844 2259 
z
" transform="scale(0.015625)"/>
        <path id="ArialMT-2212" d="M 3381 1997 
L 356 1997 
L 356 2522 
L 3381 2522 
L 3381 1997 
z
" transform="scale(0.015625)"/>
       </defs>
       <use xlink:href="#ArialMT-31" transform="translate(0 0.99375)"/>
       <use xlink:href="#ArialMT-30" transform="translate(55.615234 0.99375)"/>
       <use xlink:href="#ArialMT-2212" transform="translate(112.972813 70.6875) scale(0.7)"/>
       <use xlink:href="#ArialMT-31" transform="translate(153.851719 70.6875) scale(0.7)"/>
       <use xlink:href="#ArialMT-30" transform="translate(192.782383 70.6875) scale(0.7)"/>
      </g>
     </g>
    </g>
    <g id="xtick_2">
     <g id="line2d_2">
      <g>
       <use xlink:href="#m510e7c623e" x="287.424153" y="655.077656" style="fill: #262626; stroke: #262626; stroke-width: 1.875"/>
      </g>
     </g>
     <g id="text_2">
      <!-- $\mathdefault{10^{-6}}$ -->
      <g style="fill: #262626" transform="translate(254.754153 701.608906) scale(0.33 -0.33)">
       <defs>
        <path id="ArialMT-36" d="M 3184 3459 
L 2625 3416 
Q 2550 3747 2413 3897 
Q 2184 4138 1850 4138 
Q 1581 4138 1378 3988 
Q 1113 3794 959 3422 
Q 806 3050 800 2363 
Q 1003 2672 1297 2822 
Q 1591 2972 1913 2972 
Q 2475 2972 2870 2558 
Q 3266 2144 3266 1488 
Q 3266 1056 3080 686 
Q 2894 316 2569 119 
Q 2244 -78 1831 -78 
Q 1128 -78 684 439 
Q 241 956 241 2144 
Q 241 3472 731 4075 
Q 1159 4600 1884 4600 
Q 2425 4600 2770 4297 
Q 3116 3994 3184 3459 
z
M 888 1484 
Q 888 1194 1011 928 
Q 1134 663 1356 523 
Q 1578 384 1822 384 
Q 2178 384 2434 671 
Q 2691 959 2691 1453 
Q 2691 1928 2437 2201 
Q 2184 2475 1800 2475 
Q 1419 2475 1153 2201 
Q 888 1928 888 1484 
z
" transform="scale(0.015625)"/>
       </defs>
       <use xlink:href="#ArialMT-31" transform="translate(0 0.99375)"/>
       <use xlink:href="#ArialMT-30" transform="translate(55.615234 0.99375)"/>
       <use xlink:href="#ArialMT-2212" transform="translate(112.972813 70.6875) scale(0.7)"/>
       <use xlink:href="#ArialMT-36" transform="translate(153.851719 70.6875) scale(0.7)"/>
      </g>
     </g>
    </g>
    <g id="xtick_3">
     <g id="line2d_3">
      <g>
       <use xlink:href="#m510e7c623e" x="439.098306" y="655.077656" style="fill: #262626; stroke: #262626; stroke-width: 1.875"/>
      </g>
     </g>
     <g id="text_3">
      <!-- $\mathdefault{10^{-2}}$ -->
      <g style="fill: #262626" transform="translate(406.428306 701.608906) scale(0.33 -0.33)">
       <defs>
        <path id="ArialMT-32" d="M 3222 541 
L 3222 0 
L 194 0 
Q 188 203 259 391 
Q 375 700 629 1000 
Q 884 1300 1366 1694 
Q 2113 2306 2375 2664 
Q 2638 3022 2638 3341 
Q 2638 3675 2398 3904 
Q 2159 4134 1775 4134 
Q 1369 4134 1125 3890 
Q 881 3647 878 3216 
L 300 3275 
Q 359 3922 746 4261 
Q 1134 4600 1788 4600 
Q 2447 4600 2831 4234 
Q 3216 3869 3216 3328 
Q 3216 3053 3103 2787 
Q 2991 2522 2730 2228 
Q 2469 1934 1863 1422 
Q 1356 997 1212 845 
Q 1069 694 975 541 
L 3222 541 
z
" transform="scale(0.015625)"/>
       </defs>
       <use xlink:href="#ArialMT-31" transform="translate(0 0.99375)"/>
       <use xlink:href="#ArialMT-30" transform="translate(55.615234 0.99375)"/>
       <use xlink:href="#ArialMT-2212" transform="translate(112.972813 70.6875) scale(0.7)"/>
       <use xlink:href="#ArialMT-32" transform="translate(153.851719 70.6875) scale(0.7)"/>
      </g>
     </g>
    </g>
    <g id="text_4">
     <!-- $\eta$ fidelity -->
     <g style="fill: #262626" transform="translate(263.55 738.447656) scale(0.36 -0.36)">
      <defs>
       <path id="DejaVuSans-Oblique-3b7" d="M 3703 2113 
L 3034 -1331 
L 2459 -1331 
L 3125 2094 
Q 3222 2591 3075 2838 
Q 2931 3084 2544 3084 
Q 2078 3084 1750 2788 
Q 1425 2491 1325 1978 
L 941 0 
L 363 0 
L 1044 3500 
L 1622 3500 
L 1516 2956 
Q 1781 3272 2094 3428 
Q 2403 3584 2769 3584 
Q 3372 3584 3609 3213 
Q 3844 2838 3703 2113 
z
" transform="scale(0.015625)"/>
       <path id="ArialMT-20" transform="scale(0.015625)"/>
       <path id="ArialMT-66" d="M 556 0 
L 556 2881 
L 59 2881 
L 59 3319 
L 556 3319 
L 556 3672 
Q 556 4006 616 4169 
Q 697 4388 901 4523 
Q 1106 4659 1475 4659 
Q 1713 4659 2000 4603 
L 1916 4113 
Q 1741 4144 1584 4144 
Q 1328 4144 1222 4034 
Q 1116 3925 1116 3625 
L 1116 3319 
L 1763 3319 
L 1763 2881 
L 1116 2881 
L 1116 0 
L 556 0 
z
" transform="scale(0.015625)"/>
       <path id="ArialMT-69" d="M 425 3934 
L 425 4581 
L 988 4581 
L 988 3934 
L 425 3934 
z
M 425 0 
L 425 3319 
L 988 3319 
L 988 0 
L 425 0 
z
" transform="scale(0.015625)"/>
       <path id="ArialMT-64" d="M 2575 0 
L 2575 419 
Q 2259 -75 1647 -75 
Q 1250 -75 917 144 
Q 584 363 401 755 
Q 219 1147 219 1656 
Q 219 2153 384 2558 
Q 550 2963 881 3178 
Q 1213 3394 1622 3394 
Q 1922 3394 2156 3267 
Q 2391 3141 2538 2938 
L 2538 4581 
L 3097 4581 
L 3097 0 
L 2575 0 
z
M 797 1656 
Q 797 1019 1065 703 
Q 1334 388 1700 388 
Q 2069 388 2326 689 
Q 2584 991 2584 1609 
Q 2584 2291 2321 2609 
Q 2059 2928 1675 2928 
Q 1300 2928 1048 2622 
Q 797 2316 797 1656 
z
" transform="scale(0.015625)"/>
       <path id="ArialMT-65" d="M 2694 1069 
L 3275 997 
Q 3138 488 2766 206 
Q 2394 -75 1816 -75 
Q 1088 -75 661 373 
Q 234 822 234 1631 
Q 234 2469 665 2931 
Q 1097 3394 1784 3394 
Q 2450 3394 2872 2941 
Q 3294 2488 3294 1666 
Q 3294 1616 3291 1516 
L 816 1516 
Q 847 969 1125 678 
Q 1403 388 1819 388 
Q 2128 388 2347 550 
Q 2566 713 2694 1069 
z
M 847 1978 
L 2700 1978 
Q 2663 2397 2488 2606 
Q 2219 2931 1791 2931 
Q 1403 2931 1139 2672 
Q 875 2413 847 1978 
z
" transform="scale(0.015625)"/>
       <path id="ArialMT-6c" d="M 409 0 
L 409 4581 
L 972 4581 
L 972 0 
L 409 0 
z
" transform="scale(0.015625)"/>
       <path id="ArialMT-74" d="M 1650 503 
L 1731 6 
Q 1494 -44 1306 -44 
Q 1000 -44 831 53 
Q 663 150 594 308 
Q 525 466 525 972 
L 525 2881 
L 113 2881 
L 113 3319 
L 525 3319 
L 525 4141 
L 1084 4478 
L 1084 3319 
L 1650 3319 
L 1650 2881 
L 1084 2881 
L 1084 941 
Q 1084 700 1114 631 
Q 1144 563 1211 522 
Q 1278 481 1403 481 
Q 1497 481 1650 503 
z
" transform="scale(0.015625)"/>
       <path id="ArialMT-79" d="M 397 -1278 
L 334 -750 
Q 519 -800 656 -800 
Q 844 -800 956 -737 
Q 1069 -675 1141 -563 
Q 1194 -478 1313 -144 
Q 1328 -97 1363 -6 
L 103 3319 
L 709 3319 
L 1400 1397 
Q 1534 1031 1641 628 
Q 1738 1016 1872 1384 
L 2581 3319 
L 3144 3319 
L 1881 -56 
Q 1678 -603 1566 -809 
Q 1416 -1088 1222 -1217 
Q 1028 -1347 759 -1347 
Q 597 -1347 397 -1278 
z
" transform="scale(0.015625)"/>
      </defs>
      <use xlink:href="#DejaVuSans-Oblique-3b7" transform="translate(0 0.203125)"/>
      <use xlink:href="#ArialMT-20" transform="translate(63.378906 0.203125)"/>
      <use xlink:href="#ArialMT-66" transform="translate(91.162109 0.203125)"/>
      <use xlink:href="#ArialMT-69" transform="translate(118.945312 0.203125)"/>
      <use xlink:href="#ArialMT-64" transform="translate(141.162109 0.203125)"/>
      <use xlink:href="#ArialMT-65" transform="translate(196.777344 0.203125)"/>
      <use xlink:href="#ArialMT-6c" transform="translate(252.392578 0.203125)"/>
      <use xlink:href="#ArialMT-69" transform="translate(274.609375 0.203125)"/>
      <use xlink:href="#ArialMT-74" transform="translate(296.826172 0.203125)"/>
      <use xlink:href="#ArialMT-79" transform="translate(324.609375 0.203125)"/>
     </g>
    </g>
   </g>
   <g id="matplotlib.axis_2">
    <g id="ytick_1">
     <g id="line2d_4">
      <defs>
       <path id="mfd5ea8a1a3" d="M 0 0 
L -9 0 
" style="stroke: #262626; stroke-width: 1.875"/>
      </defs>
      <g>
       <use xlink:href="#mfd5ea8a1a3" x="135.75" y="655.077656" style="fill: #262626; stroke: #262626; stroke-width: 1.875"/>
      </g>
     </g>
     <g id="text_5">
      <!-- $\mathdefault{10^{-10}}$ -->
      <g style="fill: #262626" transform="translate(45.04 672.093281) scale(0.33 -0.33)">
       <use xlink:href="#ArialMT-31" transform="translate(0 0.99375)"/>
       <use xlink:href="#ArialMT-30" transform="translate(55.615234 0.99375)"/>
       <use xlink:href="#ArialMT-2212" transform="translate(112.972813 70.6875) scale(0.7)"/>
       <use xlink:href="#ArialMT-31" transform="translate(153.851719 70.6875) scale(0.7)"/>
       <use xlink:href="#ArialMT-30" transform="translate(192.782383 70.6875) scale(0.7)"/>
      </g>
     </g>
    </g>
    <g id="ytick_2">
     <g id="line2d_5">
      <g>
       <use xlink:href="#mfd5ea8a1a3" x="135.75" y="542.055949" style="fill: #262626; stroke: #262626; stroke-width: 1.875"/>
      </g>
     </g>
     <g id="text_6">
      <!-- $\mathdefault{10^{-7}}$ -->
      <g style="fill: #262626" transform="translate(57.91 558.906574) scale(0.33 -0.33)">
       <defs>
        <path id="ArialMT-37" d="M 303 3981 
L 303 4522 
L 3269 4522 
L 3269 4084 
Q 2831 3619 2401 2847 
Q 1972 2075 1738 1259 
Q 1569 684 1522 0 
L 944 0 
Q 953 541 1156 1306 
Q 1359 2072 1739 2783 
Q 2119 3494 2547 3981 
L 303 3981 
z
" transform="scale(0.015625)"/>
       </defs>
       <use xlink:href="#ArialMT-31" transform="translate(0 0.846875)"/>
       <use xlink:href="#ArialMT-30" transform="translate(55.615234 0.846875)"/>
       <use xlink:href="#ArialMT-2212" transform="translate(112.972813 70.540625) scale(0.7)"/>
       <use xlink:href="#ArialMT-37" transform="translate(153.851719 70.540625) scale(0.7)"/>
      </g>
     </g>
    </g>
    <g id="ytick_3">
     <g id="line2d_6">
      <g>
       <use xlink:href="#mfd5ea8a1a3" x="135.75" y="429.034241" style="fill: #262626; stroke: #262626; stroke-width: 1.875"/>
      </g>
     </g>
     <g id="text_7">
      <!-- $\mathdefault{10^{-4}}$ -->
      <g style="fill: #262626" transform="translate(57.91 445.884866) scale(0.33 -0.33)">
       <defs>
        <path id="ArialMT-34" d="M 2069 0 
L 2069 1097 
L 81 1097 
L 81 1613 
L 2172 4581 
L 2631 4581 
L 2631 1613 
L 3250 1613 
L 3250 1097 
L 2631 1097 
L 2631 0 
L 2069 0 
z
M 2069 1613 
L 2069 3678 
L 634 1613 
L 2069 1613 
z
" transform="scale(0.015625)"/>
       </defs>
       <use xlink:href="#ArialMT-31" transform="translate(0 0.201563)"/>
       <use xlink:href="#ArialMT-30" transform="translate(55.615234 0.201563)"/>
       <use xlink:href="#ArialMT-2212" transform="translate(112.972813 69.895313) scale(0.7)"/>
       <use xlink:href="#ArialMT-34" transform="translate(153.851719 69.895313) scale(0.7)"/>
      </g>
     </g>
    </g>
    <g id="ytick_4">
     <g id="line2d_7">
      <g>
       <use xlink:href="#mfd5ea8a1a3" x="135.75" y="316.012533" style="fill: #262626; stroke: #262626; stroke-width: 1.875"/>
      </g>
     </g>
     <g id="text_8">
      <!-- $\mathdefault{10^{-1}}$ -->
      <g style="fill: #262626" transform="translate(57.91 333.028158) scale(0.33 -0.33)">
       <use xlink:href="#ArialMT-31" transform="translate(0 0.99375)"/>
       <use xlink:href="#ArialMT-30" transform="translate(55.615234 0.99375)"/>
       <use xlink:href="#ArialMT-2212" transform="translate(112.972813 70.6875) scale(0.7)"/>
       <use xlink:href="#ArialMT-31" transform="translate(153.851719 70.6875) scale(0.7)"/>
      </g>
     </g>
    </g>
    <g id="text_9">
     <!-- $c$ activity -->
     <g style="fill: #262626" transform="translate(33.12 531.057656) rotate(-90) scale(0.36 -0.36)">
      <defs>
       <path id="DejaVuSans-Oblique-63" d="M 3431 3366 
L 3316 2797 
Q 3109 2947 2876 3022 
Q 2644 3097 2394 3097 
Q 2119 3097 1870 3000 
Q 1622 2903 1453 2725 
Q 1184 2453 1037 2087 
Q 891 1722 891 1331 
Q 891 859 1127 628 
Q 1363 397 1844 397 
Q 2081 397 2348 469 
Q 2616 541 2906 684 
L 2797 116 
Q 2547 13 2283 -39 
Q 2019 -91 1741 -91 
Q 1044 -91 669 257 
Q 294 606 294 1253 
Q 294 1797 489 2255 
Q 684 2713 1069 3078 
Q 1331 3328 1684 3456 
Q 2038 3584 2456 3584 
Q 2700 3584 2940 3529 
Q 3181 3475 3431 3366 
z
" transform="scale(0.015625)"/>
       <path id="ArialMT-61" d="M 2588 409 
Q 2275 144 1986 34 
Q 1697 -75 1366 -75 
Q 819 -75 525 192 
Q 231 459 231 875 
Q 231 1119 342 1320 
Q 453 1522 633 1644 
Q 813 1766 1038 1828 
Q 1203 1872 1538 1913 
Q 2219 1994 2541 2106 
Q 2544 2222 2544 2253 
Q 2544 2597 2384 2738 
Q 2169 2928 1744 2928 
Q 1347 2928 1158 2789 
Q 969 2650 878 2297 
L 328 2372 
Q 403 2725 575 2942 
Q 747 3159 1072 3276 
Q 1397 3394 1825 3394 
Q 2250 3394 2515 3294 
Q 2781 3194 2906 3042 
Q 3031 2891 3081 2659 
Q 3109 2516 3109 2141 
L 3109 1391 
Q 3109 606 3145 398 
Q 3181 191 3288 0 
L 2700 0 
Q 2613 175 2588 409 
z
M 2541 1666 
Q 2234 1541 1622 1453 
Q 1275 1403 1131 1340 
Q 988 1278 909 1158 
Q 831 1038 831 891 
Q 831 666 1001 516 
Q 1172 366 1500 366 
Q 1825 366 2078 508 
Q 2331 650 2450 897 
Q 2541 1088 2541 1459 
L 2541 1666 
z
" transform="scale(0.015625)"/>
       <path id="ArialMT-63" d="M 2588 1216 
L 3141 1144 
Q 3050 572 2676 248 
Q 2303 -75 1759 -75 
Q 1078 -75 664 370 
Q 250 816 250 1647 
Q 250 2184 428 2587 
Q 606 2991 970 3192 
Q 1334 3394 1763 3394 
Q 2303 3394 2647 3120 
Q 2991 2847 3088 2344 
L 2541 2259 
Q 2463 2594 2264 2762 
Q 2066 2931 1784 2931 
Q 1359 2931 1093 2626 
Q 828 2322 828 1663 
Q 828 994 1084 691 
Q 1341 388 1753 388 
Q 2084 388 2306 591 
Q 2528 794 2588 1216 
z
" transform="scale(0.015625)"/>
       <path id="ArialMT-76" d="M 1344 0 
L 81 3319 
L 675 3319 
L 1388 1331 
Q 1503 1009 1600 663 
Q 1675 925 1809 1294 
L 2547 3319 
L 3125 3319 
L 1869 0 
L 1344 0 
z
" transform="scale(0.015625)"/>
      </defs>
      <use xlink:href="#DejaVuSans-Oblique-63" transform="translate(0 0.421875)"/>
      <use xlink:href="#ArialMT-20" transform="translate(54.980469 0.421875)"/>
      <use xlink:href="#ArialMT-61" transform="translate(82.763672 0.421875)"/>
      <use xlink:href="#ArialMT-63" transform="translate(138.378906 0.421875)"/>
      <use xlink:href="#ArialMT-74" transform="translate(188.378906 0.421875)"/>
      <use xlink:href="#ArialMT-69" transform="translate(216.162109 0.421875)"/>
      <use xlink:href="#ArialMT-76" transform="translate(238.378906 0.421875)"/>
      <use xlink:href="#ArialMT-69" transform="translate(288.378906 0.421875)"/>
      <use xlink:href="#ArialMT-74" transform="translate(310.595703 0.421875)"/>
      <use xlink:href="#ArialMT-79" transform="translate(338.378906 0.421875)"/>
     </g>
    </g>
   </g>
   <g id="patch_3">
    <path d="M 401.179768 391.360339 
L 526.35 391.360339 
L 526.35 266.997656 
L 401.179768 266.997656 
L 401.179768 391.360339 
z
" clip-path="url(#p049c22403f)" style="fill: none; stroke-dasharray: 7.4,3.2; stroke-dashoffset: 0; stroke: #000000; stroke-width: 2; stroke-linejoin: miter"/>
   </g>
   <g id="line2d_8">
    <path d="M 514.935383 655.077656 
L 514.826769 360.54995 
L 514.589034 341.694143 
L 514.236445 330.380658 
L 513.785814 322.46122 
L 513.204537 316.050245 
L 512.554243 311.147735 
L 511.797832 306.999458 
L 510.876594 303.228296 
L 509.917195 300.211367 
L 508.856571 297.571554 
L 507.728315 295.308857 
L 506.329553 293.04616 
L 504.887562 291.16058 
L 503.49305 289.652115 
L 501.814533 288.143651 
L 499.753016 286.635186 
L 497.863455 285.503838 
L 495.564634 284.372489 
L 492.682961 283.241141 
L 490.294036 282.486909 
L 487.354426 281.732676 
L 483.583734 280.978444 
L 478.413592 280.224212 
L 474.925408 279.847096 
L 470.375145 279.469979 
L 463.885982 279.092863 
L 452.660054 278.715747 
L -1 278.711228 
L -1 278.711228 
" clip-path="url(#p049c22403f)" style="fill: none; stroke: #0d0887; stroke-width: 3; stroke-linecap: round"/>
   </g>
   <g id="line2d_9">
    <path d="M 514.935053 655.077656 
L 514.822938 464.256889 
L 514.586251 427.299507 
L 514.234571 404.672538 
L 513.763421 388.079428 
L 513.186093 375.257479 
L 512.494696 364.698227 
L 511.716662 356.024556 
L 510.828315 348.482233 
L 509.804216 341.694143 
L 508.739395 336.037401 
L 507.523638 330.757775 
L 506.267211 326.232381 
L 504.899007 322.084103 
L 503.43367 318.312942 
L 501.893773 314.918897 
L 500.096879 311.524851 
L 498.23483 308.507922 
L 496.35477 305.868109 
L 494.187714 303.228296 
L 492.050717 300.965599 
L 489.59552 298.702903 
L 487.250967 296.817322 
L 484.570649 294.931741 
L 481.471252 293.04616 
L 478.612514 291.537696 
L 475.326547 290.029231 
L 471.493404 288.520767 
L 466.935147 287.012302 
L 462.87786 285.880954 
L 458.074329 284.749605 
L 452.232086 283.618257 
L 444.844946 282.486909 
L 438.608008 281.732676 
L 430.704543 280.978444 
L 419.997811 280.224212 
L 412.836582 279.847096 
L 403.5501 279.469979 
L 390.384725 279.092863 
L 367.744726 278.715747 
L -1 278.712065 
L -1 278.712065 
" clip-path="url(#p049c22403f)" style="fill: none; stroke: #6a00a8; stroke-width: 3; stroke-linecap: round"/>
   </g>
   <g id="line2d_10">
    <path d="M 514.912446 655.077656 
L 514.753921 553.633414 
L 514.47433 508.002361 
L 514.079498 477.83307 
L 513.5713 455.206101 
L 512.950596 437.104527 
L 512.216557 422.019881 
L 511.375074 409.197932 
L 510.444997 398.261564 
L 509.394537 388.456544 
L 508.248019 379.782873 
L 506.978016 371.863434 
L 505.602028 364.698227 
L 504.147463 358.287253 
L 502.54474 352.253395 
L 500.919033 346.973769 
L 499.186702 342.071259 
L 497.36204 337.545865 
L 495.464907 333.397588 
L 493.314179 329.24931 
L 491.099082 325.478149 
L 488.855669 322.084103 
L 486.332893 318.690058 
L 483.813879 315.673129 
L 480.986319 312.6562 
L 478.212675 310.016387 
L 475.106419 307.376574 
L 472.129912 305.113877 
L 468.807948 302.85118 
L 465.071868 300.588483 
L 461.577501 298.702903 
L 457.663777 296.817322 
L 453.238984 294.931741 
L 448.178119 293.04616 
L 443.555208 291.537696 
L 438.286651 290.029231 
L 432.192513 288.520767 
L 425.005879 287.012302 
L 418.654839 285.880954 
L 411.18171 284.749605 
L 402.147786 283.618257 
L 390.793787 282.486909 
L 381.254671 281.732676 
L 369.214551 280.978444 
L 352.968316 280.224212 
L 328.109396 279.469979 
L 308.267201 279.092863 
L 274.212767 278.715747 
L -1 278.712993 
L -1 278.712993 
" clip-path="url(#p049c22403f)" style="fill: none; stroke: #b12a90; stroke-width: 3; stroke-linecap: round"/>
   </g>
   <g id="line2d_11">
    <path d="M 514.726749 655.077656 
L 514.433352 597.756003 
L 514.023716 558.91304 
L 513.500719 529.497981 
L 512.862851 505.739664 
L 512.123127 486.129625 
L 511.267071 469.159399 
L 510.30958 454.451869 
L 509.229968 441.252804 
L 508.053934 429.562204 
L 506.771493 419.002952 
L 505.410824 409.575048 
L 503.942345 400.901377 
L 502.385181 392.981938 
L 500.674407 385.439615 
L 498.91085 378.651525 
L 497.016788 372.24055 
L 494.997326 366.206692 
L 492.860963 360.54995 
L 490.620136 355.270324 
L 488.291765 350.367814 
L 485.897775 345.84242 
L 483.465526 341.694143 
L 480.771329 337.545865 
L 478.0604 333.774704 
L 475.06152 330.003542 
L 472.078306 326.609497 
L 468.782996 323.215452 
L 465.550594 320.198523 
L 461.98657 317.181594 
L 458.552722 314.541781 
L 454.776509 311.901968 
L 450.600359 309.262155 
L 445.951258 306.622342 
L 441.51899 304.359645 
L 436.593259 302.096948 
L 431.073848 299.834251 
L 425.925698 297.94867 
L 420.170234 296.06309 
L 413.669573 294.177509 
L 406.233227 292.291928 
L 399.430505 290.783464 
L 391.655708 289.274999 
L 382.618551 287.766535 
L 371.876043 286.25807 
L 362.280633 285.126722 
L 350.831211 283.995373 
L 336.694433 282.864025 
L 325.06024 282.109792 
L 310.737781 281.35556 
L 292.164817 280.601328 
L 265.834067 279.847096 
L 247.073234 279.469979 
L 220.554068 279.092863 
L 175.085108 278.715747 
L -1 278.71398 
L -1 278.71398 
" clip-path="url(#p049c22403f)" style="fill: none; stroke: #e16462; stroke-width: 3; stroke-linecap: round"/>
   </g>
   <g id="line2d_12">
    <path d="M 514.107847 655.077656 
L 513.607045 616.61181 
L 512.989594 585.688286 
L 512.261496 560.044389 
L 511.4242 538.171652 
L 510.46796 518.938729 
L 509.402802 501.968503 
L 508.235806 486.883857 
L 506.966119 473.307676 
L 505.579678 460.862843 
L 504.096937 449.549359 
L 502.547064 439.367223 
L 500.897683 429.93932 
L 499.087407 420.888532 
L 497.20065 412.591977 
L 495.266864 405.049654 
L 493.207729 397.884448 
L 491.027992 391.096357 
L 488.735033 384.685383 
L 486.339227 378.651525 
L 483.854305 372.994782 
L 481.29771 367.715156 
L 478.690894 362.812647 
L 475.829662 357.910137 
L 472.932368 353.384743 
L 470.031628 349.236466 
L 466.865517 345.088188 
L 463.726637 341.317027 
L 460.306146 337.545865 
L 456.565137 333.774704 
L 452.88542 330.380658 
L 448.866318 326.986613 
L 444.96807 323.969684 
L 440.718294 320.952755 
L 436.063992 317.935826 
L 431.608441 315.296013 
L 426.738788 312.6562 
L 421.387558 310.016387 
L 415.469625 307.376574 
L 409.863905 305.113877 
L 403.673277 302.85118 
L 396.783281 300.588483 
L 390.399645 298.702903 
L 383.310675 296.817322 
L 375.363505 294.931741 
L 366.349786 293.04616 
L 358.177142 291.537696 
L 348.924293 290.029231 
L 338.291345 288.520767 
L 325.833435 287.012302 
L 314.885512 285.880954 
L 302.065112 284.749605 
L 286.641056 283.618257 
L 267.347879 282.486909 
L 251.201492 281.732676 
L 230.88573 280.978444 
L 203.558738 280.224212 
L 161.876235 279.469979 
L 128.680037 279.092863 
L 71.796514 278.715747 
L -1 278.715015 
L -1 278.715015 
" clip-path="url(#p049c22403f)" style="fill: none; stroke: #f0f921; stroke-width: 3; stroke-linecap: round"/>
   </g>
   <g id="patch_4">
    <path d="M 135.75 655.077656 
L 135.75 266.997656 
" style="fill: none; stroke: #262626; stroke-width: 1.875; stroke-linejoin: miter; stroke-linecap: square"/>
   </g>
   <g id="patch_5">
    <path d="M 526.35 655.077656 
L 526.35 266.997656 
" style="fill: none; stroke: #262626; stroke-width: 1.875; stroke-linejoin: miter; stroke-linecap: square"/>
   </g>
   <g id="patch_6">
    <path d="M 135.75 655.077656 
L 526.35 655.077656 
" style="fill: none; stroke: #262626; stroke-width: 1.875; stroke-linejoin: miter; stroke-linecap: square"/>
   </g>
   <g id="patch_7">
    <path d="M 135.75 266.997656 
L 526.35 266.997656 
" style="fill: none; stroke: #262626; stroke-width: 1.875; stroke-linejoin: miter; stroke-linecap: square"/>
   </g>
   <g id="legend_1">
    <g id="patch_8">
     <path d="M 158.85 250.497656 
L 309.407344 250.497656 
Q 316.007344 250.497656 316.007344 243.897656 
L 316.007344 13.8 
Q 316.007344 7.2 309.407344 7.2 
L 158.85 7.2 
Q 152.25 7.2 152.25 13.8 
L 152.25 243.897656 
Q 152.25 250.497656 158.85 250.497656 
z
" style="fill: #ffffff; opacity: 0.8; stroke: #cccccc; stroke-width: 1.5; stroke-linejoin: miter"/>
    </g>
    <g id="line2d_13">
     <path d="M 165.45 32.470781 
L 198.45 32.470781 
L 231.45 32.470781 
" style="fill: none; stroke: #0d0887; stroke-width: 3; stroke-linecap: round"/>
    </g>
    <g id="text_10">
     <!-- i=0 -->
     <g style="fill: #262626" transform="translate(257.85 44.020781) scale(0.33 -0.33)">
      <defs>
       <path id="ArialMT-3d" d="M 3381 2694 
L 356 2694 
L 356 3219 
L 3381 3219 
L 3381 2694 
z
M 3381 1303 
L 356 1303 
L 356 1828 
L 3381 1828 
L 3381 1303 
z
" transform="scale(0.015625)"/>
      </defs>
      <use xlink:href="#ArialMT-69"/>
      <use xlink:href="#ArialMT-3d" x="22.216797"/>
      <use xlink:href="#ArialMT-30" x="80.615234"/>
     </g>
    </g>
    <g id="line2d_14">
     <path d="M 165.45 79.150312 
L 198.45 79.150312 
L 231.45 79.150312 
" style="fill: none; stroke: #6a00a8; stroke-width: 3; stroke-linecap: round"/>
    </g>
    <g id="text_11">
     <!-- i=1 -->
     <g style="fill: #262626" transform="translate(257.85 90.700312) scale(0.33 -0.33)">
      <use xlink:href="#ArialMT-69"/>
      <use xlink:href="#ArialMT-3d" x="22.216797"/>
      <use xlink:href="#ArialMT-31" x="80.615234"/>
     </g>
    </g>
    <g id="line2d_15">
     <path d="M 165.45 125.829844 
L 198.45 125.829844 
L 231.45 125.829844 
" style="fill: none; stroke: #b12a90; stroke-width: 3; stroke-linecap: round"/>
    </g>
    <g id="text_12">
     <!-- i=2 -->
     <g style="fill: #262626" transform="translate(257.85 137.379844) scale(0.33 -0.33)">
      <use xlink:href="#ArialMT-69"/>
      <use xlink:href="#ArialMT-3d" x="22.216797"/>
      <use xlink:href="#ArialMT-32" x="80.615234"/>
     </g>
    </g>
    <g id="line2d_16">
     <path d="M 165.45 172.509375 
L 198.45 172.509375 
L 231.45 172.509375 
" style="fill: none; stroke: #e16462; stroke-width: 3; stroke-linecap: round"/>
    </g>
    <g id="text_13">
     <!-- i=3 -->
     <g style="fill: #262626" transform="translate(257.85 184.059375) scale(0.33 -0.33)">
      <defs>
       <path id="ArialMT-33" d="M 269 1209 
L 831 1284 
Q 928 806 1161 595 
Q 1394 384 1728 384 
Q 2125 384 2398 659 
Q 2672 934 2672 1341 
Q 2672 1728 2419 1979 
Q 2166 2231 1775 2231 
Q 1616 2231 1378 2169 
L 1441 2663 
Q 1497 2656 1531 2656 
Q 1891 2656 2178 2843 
Q 2466 3031 2466 3422 
Q 2466 3731 2256 3934 
Q 2047 4138 1716 4138 
Q 1388 4138 1169 3931 
Q 950 3725 888 3313 
L 325 3413 
Q 428 3978 793 4289 
Q 1159 4600 1703 4600 
Q 2078 4600 2393 4439 
Q 2709 4278 2876 4000 
Q 3044 3722 3044 3409 
Q 3044 3113 2884 2869 
Q 2725 2625 2413 2481 
Q 2819 2388 3044 2092 
Q 3269 1797 3269 1353 
Q 3269 753 2831 336 
Q 2394 -81 1725 -81 
Q 1122 -81 723 278 
Q 325 638 269 1209 
z
" transform="scale(0.015625)"/>
      </defs>
      <use xlink:href="#ArialMT-69"/>
      <use xlink:href="#ArialMT-3d" x="22.216797"/>
      <use xlink:href="#ArialMT-33" x="80.615234"/>
     </g>
    </g>
    <g id="line2d_17">
     <path d="M 165.45 219.188906 
L 198.45 219.188906 
L 231.45 219.188906 
" style="fill: none; stroke: #f0f921; stroke-width: 3; stroke-linecap: round"/>
    </g>
    <g id="text_14">
     <!-- i=4 -->
     <g style="fill: #262626" transform="translate(257.85 230.738906) scale(0.33 -0.33)">
      <use xlink:href="#ArialMT-69"/>
      <use xlink:href="#ArialMT-3d" x="22.216797"/>
      <use xlink:href="#ArialMT-34" x="80.615234"/>
     </g>
    </g>
   </g>
  </g>
 </g>
 <defs>
  <clipPath id="p049c22403f">
   <rect x="135.75" y="266.997656" width="390.6" height="388.08"/>
  </clipPath>
 </defs>
</svg>
