<?xml version="1.0" encoding="UTF-8"?>
<svg id="_图层_1" data-name="图层_1" xmlns="http://www.w3.org/2000/svg" xmlns:xlink="http://www.w3.org/1999/xlink" version="1.1" viewBox="0 0 576 288">
  <!-- Generator: Adobe Illustrator 29.2.1, SVG Export Plug-In . SVG Version: 2.1.0 Build 116)  -->
  <defs>
    <style>
      .st0, .st1, .st2, .st3, .st4, .st5, .st6, .st7 {
        fill: none;
      }

      .st8, .st1, .st3, .st4, .st5, .st6, .st7 {
        stroke-linejoin: round;
      }

      .st8, .st2 {
        stroke: #262626;
        stroke-width: 1.2px;
      }

      .st8, .st9 {
        fill: #262626;
      }

      .st10 {
        isolation: isolate;
        opacity: .8;
        stroke: #ccc;
      }

      .st10, .st11 {
        fill: #fff;
      }

      .st12 {
        fill: #006d2c;
      }

      .st12, .st6 {
        stroke: #006d2c;
      }

      .st13 {
        fill: #4335a7;
      }

      .st13, .st1 {
        stroke: #4335a7;
      }

      .st1, .st3, .st4, .st5, .st6, .st7 {
        stroke-linecap: round;
      }

      .st14 {
        fill: #b7b7b7;
      }

      .st14, .st3 {
        stroke: #b7b7b7;
      }

      .st15 {
        clip-path: url(#clippath-11);
      }

      .st16 {
        clip-path: url(#clippath-10);
      }

      .st2 {
        stroke-linecap: square;
      }

      .st17 {
        clip-path: url(#clippath-1);
      }

      .st18 {
        clip-path: url(#clippath-3);
      }

      .st19 {
        clip-path: url(#clippath-4);
      }

      .st20 {
        clip-path: url(#clippath-2);
      }

      .st21 {
        clip-path: url(#clippath-7);
      }

      .st22 {
        clip-path: url(#clippath-6);
      }

      .st23 {
        clip-path: url(#clippath-9);
      }

      .st24 {
        clip-path: url(#clippath-8);
      }

      .st25 {
        clip-path: url(#clippath-5);
      }

      .st4, .st26 {
        stroke: #e76f51;
      }

      .st5, .st27 {
        stroke: #e9c46a;
      }

      .st7, .st28 {
        stroke: #36ba98;
      }

      .st29 {
        clip-path: url(#clippath);
      }

      .st28 {
        fill: #36ba98;
      }

      .st26 {
        fill: #e76f51;
        stroke-linejoin: bevel;
      }

      .st27 {
        fill: #e9c46a;
      }
    </style>
    <clipPath id="clippath">
      <rect class="st0" x="71" y="13" width="240.6" height="210.6"/>
    </clipPath>
    <clipPath id="clippath-1">
      <rect class="st0" x="71" y="13" width="240.6" height="210.6"/>
    </clipPath>
    <clipPath id="clippath-2">
      <rect class="st0" x="71" y="13" width="240.6" height="210.6"/>
    </clipPath>
    <clipPath id="clippath-3">
      <rect class="st0" x="71" y="13" width="240.6" height="210.6"/>
    </clipPath>
    <clipPath id="clippath-4">
      <rect class="st0" x="71" y="13" width="240.6" height="210.6"/>
    </clipPath>
    <clipPath id="clippath-5">
      <rect class="st0" x="71" y="13" width="240.6" height="210.6"/>
    </clipPath>
    <clipPath id="clippath-6">
      <rect class="st0" x="71" y="13" width="240.6" height="210.6"/>
    </clipPath>
    <clipPath id="clippath-7">
      <rect class="st0" x="71" y="13" width="240.6" height="210.6"/>
    </clipPath>
    <clipPath id="clippath-8">
      <rect class="st0" x="71" y="13" width="240.6" height="210.6"/>
    </clipPath>
    <clipPath id="clippath-9">
      <rect class="st0" x="71" y="13" width="240.6" height="210.6"/>
    </clipPath>
    <clipPath id="clippath-10">
      <rect class="st0" x="71" y="13" width="240.6" height="210.6"/>
    </clipPath>
    <clipPath id="clippath-11">
      <rect class="st0" x="71" y="13" width="240.6" height="210.6"/>
    </clipPath>
  </defs>
  <g id="figure_1">
    <g id="axes_1">
      <g id="patch_2">
        <path class="st11" d="M71,223.6h240.6V13H71v210.6Z"/>
      </g>
      <g id="matplotlib.axis_1">
        <g id="xtick_1">
          <g id="line2d_1">
            <path id="m6ec4a711d3" class="st8" d="M106,223.6v6"/>
          </g>
          <g id="text_1">
            <g>
              <path id="ArialMT-31" class="st9" d="M100.2,247.4h-1.2v-7.8c-.3.3-.7.6-1.2.8s-.9.5-1.3.6v-1.2c.7-.3,1.3-.7,1.8-1.2.5-.5.9-.9,1.1-1.3h.8v10.1Z"/>
              <path id="ArialMT-30" class="st9" d="M103.4,242.4c0-1.2.1-2.1.4-2.9.2-.7.6-1.3,1.1-1.7.5-.4,1.1-.6,1.8-.6s1,.1,1.4.3c.4.2.7.5,1,.9.3.4.5.9.6,1.5.2.6.2,1.4.2,2.4s-.1,2.1-.4,2.8c-.2.7-.6,1.3-1.1,1.7-.5.4-1.1.6-1.8.6s-1.7-.3-2.3-1c-.7-.8-1-2.2-1-4.1ZM104.6,242.4c0,1.6.2,2.7.6,3.3.4.5.9.8,1.4.8s1-.3,1.4-.8.6-1.6.6-3.3-.2-2.7-.6-3.3c-.4-.5-.9-.8-1.4-.8s-1,.2-1.4.7c-.4.6-.6,1.7-.6,3.4Z"/>
              <path id="ArialMT-301" data-name="ArialMT-30" class="st9" d="M111.2,234.1c0-.8,0-1.5.3-2,.2-.5.4-.9.8-1.2.3-.3.8-.4,1.3-.4s.7,0,1,.2c.3.2.5.4.7.7.2.3.3.6.4,1,.1.4.2,1,.2,1.7s0,1.5-.3,2c-.2.5-.4.9-.8,1.2-.3.3-.8.4-1.3.4s-1.2-.2-1.6-.7c-.5-.6-.7-1.5-.7-2.9ZM112.1,234.1c0,1.2.1,1.9.4,2.3.3.4.6.6,1,.6s.7-.2,1-.6.4-1.1.4-2.3-.1-1.9-.4-2.3c-.3-.4-.6-.6-1-.6s-.7.2-.9.5c-.3.4-.4,1.2-.4,2.4Z"/>
            </g>
          </g>
        </g>
        <g id="xtick_2">
          <g id="line2d_2">
            <path id="m6ec4a711d31" data-name="m6ec4a711d3" class="st8" d="M171.9,223.6v6"/>
          </g>
          <g id="text_2">
            <g>
              <path id="ArialMT-311" data-name="ArialMT-31" class="st9" d="M166.1,247.4h-1.2v-7.8c-.3.3-.7.6-1.2.8s-.9.5-1.3.6v-1.2c.7-.3,1.3-.7,1.8-1.2.5-.5.9-.9,1.1-1.3h.8v10.1Z"/>
              <path id="ArialMT-302" data-name="ArialMT-30" class="st9" d="M169.3,242.4c0-1.2.1-2.1.4-2.9.2-.7.6-1.3,1.1-1.7.5-.4,1.1-.6,1.8-.6s1,.1,1.4.3c.4.2.7.5,1,.9.3.4.5.9.6,1.5.2.6.2,1.4.2,2.4s-.1,2.1-.4,2.8c-.2.7-.6,1.3-1.1,1.7-.5.4-1.1.6-1.8.6s-1.7-.3-2.3-1c-.7-.8-1-2.2-1-4.1ZM170.5,242.4c0,1.6.2,2.7.6,3.3.4.5.9.8,1.4.8s1-.3,1.4-.8.6-1.6.6-3.3-.2-2.7-.6-3.3c-.4-.5-.9-.8-1.4-.8s-1,.2-1.4.7c-.4.6-.6,1.7-.6,3.4Z"/>
              <path id="ArialMT-32" class="st9" d="M181.6,236.8v.8h-4.6c0-.2,0-.4,0-.6.1-.3.3-.6.6-.9.3-.3.6-.7,1.1-1.1.8-.6,1.3-1.1,1.5-1.5.3-.4.4-.7.4-1s-.1-.6-.4-.9c-.2-.2-.6-.4-1-.4s-.7.1-1,.4c-.2.2-.4.6-.4,1h-.9c0-.8.3-1.3.7-1.6.4-.3.9-.5,1.6-.5s1.2.2,1.6.6c.4.4.6.8.6,1.4s0,.6-.2.8c-.1.3-.3.6-.6.9s-.7.7-1.3,1.2c-.5.4-.8.7-1,.9-.1.2-.3.3-.4.5h3.4Z"/>
            </g>
          </g>
        </g>
        <g id="xtick_3">
          <g id="line2d_3">
            <path id="m6ec4a711d32" data-name="m6ec4a711d3" class="st8" d="M237.8,223.6v6"/>
          </g>
          <g id="text_3">
            <g>
              <path id="ArialMT-312" data-name="ArialMT-31" class="st9" d="M232,247.3h-1.2v-7.8c-.3.3-.7.6-1.2.8s-.9.5-1.3.6v-1.2c.7-.3,1.3-.7,1.8-1.2.5-.5.9-.9,1.1-1.3h.8v10.1Z"/>
              <path id="ArialMT-303" data-name="ArialMT-30" class="st9" d="M235.2,242.4c0-1.2.1-2.1.4-2.9.2-.7.6-1.3,1.1-1.7.5-.4,1.1-.6,1.8-.6s1,.1,1.4.3c.4.2.7.5,1,.9.3.4.5.9.6,1.5.2.6.2,1.4.2,2.4s-.1,2.1-.4,2.8c-.2.7-.6,1.3-1.1,1.7-.5.4-1.1.6-1.8.6s-1.7-.3-2.3-1c-.7-.8-1-2.2-1-4.1ZM236.4,242.4c0,1.6.2,2.7.6,3.3.4.5.9.8,1.4.8s1-.3,1.4-.8.6-1.6.6-3.3-.2-2.7-.6-3.3c-.4-.5-.9-.8-1.4-.8s-1,.2-1.4.7c-.4.6-.6,1.7-.6,3.4Z"/>
              <path id="ArialMT-34" class="st9" d="M245.8,237.6v-1.7h-3v-.8l3.2-4.5h.7v4.5h.9v.8h-.9v1.7h-.9ZM245.8,235.1v-3.2l-2.2,3.2h2.2Z"/>
            </g>
          </g>
        </g>
        <g id="xtick_4">
          <g id="line2d_4">
            <path id="m6ec4a711d33" data-name="m6ec4a711d3" class="st8" d="M303.7,223.6v6"/>
          </g>
          <g id="text_4">
            <g>
              <path id="ArialMT-313" data-name="ArialMT-31" class="st9" d="M297.9,247.4h-1.2v-7.8c-.3.3-.7.6-1.2.8s-.9.5-1.3.6v-1.2c.7-.3,1.3-.7,1.8-1.2.5-.5.9-.9,1.1-1.3h.8v10.1Z"/>
              <path id="ArialMT-304" data-name="ArialMT-30" class="st9" d="M301.1,242.4c0-1.2.1-2.1.4-2.9.2-.7.6-1.3,1.1-1.7.5-.4,1.1-.6,1.8-.6s1,.1,1.4.3c.4.2.7.5,1,.9.3.4.5.9.6,1.5.2.6.2,1.4.2,2.4s-.1,2.1-.4,2.8c-.2.7-.6,1.3-1.1,1.7-.5.4-1.1.6-1.8.6s-1.7-.3-2.3-1c-.7-.8-1-2.2-1-4.1ZM302.3,242.4c0,1.6.2,2.7.6,3.3.4.5.9.8,1.4.8s1-.3,1.4-.8.6-1.6.6-3.3-.2-2.7-.6-3.3c-.4-.5-.9-.8-1.4-.8s-1,.2-1.4.7c-.4.6-.6,1.7-.6,3.4Z"/>
              <path id="ArialMT-36" class="st9" d="M313.4,232.3h-.9c0-.3-.2-.5-.3-.7-.2-.2-.5-.4-.9-.4s-.5,0-.7.2c-.3.2-.5.5-.6.9-.2.4-.2.9-.2,1.6.2-.3.5-.5.8-.7s.6-.2.9-.2c.6,0,1.1.2,1.5.6.4.4.6,1,.6,1.6s0,.9-.3,1.2c-.2.4-.5.7-.8.9-.3.2-.7.3-1.1.3-.7,0-1.3-.3-1.8-.8-.5-.5-.7-1.4-.7-2.6s.3-2.3.8-3c.4-.5,1-.8,1.8-.8s1,.2,1.4.5c.4.3.6.7.6,1.3ZM309.9,235.3c0,.3,0,.6.2.9.1.3.3.5.5.6.2.1.5.2.7.2.4,0,.7-.1.9-.4.3-.3.4-.7.4-1.2s-.1-.9-.4-1.1c-.3-.3-.6-.4-1-.4s-.7.1-1,.4c-.3.3-.4.6-.4,1.1Z"/>
            </g>
          </g>
        </g>
        <g id="text_5">
          <g>
            <path id="ArialMT-65" class="st9" d="M131.3,264.4l1.6.2c-.3,1-.7,1.7-1.4,2.2-.7.5-1.6.8-2.7.8s-2.4-.4-3.2-1.3c-.8-.8-1.2-2-1.2-3.5s.4-2.8,1.2-3.7c.8-.9,1.9-1.3,3.1-1.3s2.3.4,3.1,1.3,1.2,2,1.2,3.6,0,.2,0,.4h-7c0,1,.3,1.8.9,2.4.5.5,1.2.8,2,.8s1.1-.2,1.5-.5c.4-.3.7-.8,1-1.5ZM126.1,261.8h5.2c0-.8-.3-1.4-.6-1.8-.5-.6-1.2-.9-2-.9s-1.3.2-1.8.7-.8,1.1-.8,2Z"/>
            <path id="ArialMT-6e" class="st9" d="M135,267.4v-9.3h1.4v1.3c.7-1,1.7-1.5,3-1.5s1.1.1,1.6.3.8.5,1.1.8.4.7.5,1.2c0,.3,0,.8,0,1.5v5.7h-1.6v-5.7c0-.6,0-1.1-.2-1.4-.1-.3-.3-.6-.7-.8-.3-.2-.7-.3-1.1-.3-.7,0-1.3.2-1.7.6s-.7,1.2-.7,2.4v5.1h-1.6Z"/>
            <path id="ArialMT-68" class="st9" d="M145,267.4v-12.9h1.6v4.6c.7-.9,1.7-1.3,2.8-1.3s1.3.1,1.8.4c.5.3.9.6,1.1,1.1s.3,1.2.3,2.1v5.9h-1.6v-5.9c0-.8-.2-1.4-.5-1.7s-.8-.5-1.5-.5-.9.1-1.3.4c-.4.2-.7.6-.9,1-.2.4-.3,1-.3,1.7v5.1h-1.6Z"/>
            <path id="ArialMT-61" class="st9" d="M161.1,266.2c-.6.5-1.2.8-1.7,1.1-.5.2-1.1.3-1.7.3-1,0-1.8-.3-2.4-.8s-.8-1.1-.8-1.9.1-.9.3-1.3c.2-.4.5-.7.8-.9s.7-.4,1.1-.5c.3,0,.8-.2,1.4-.2,1.3-.2,2.2-.3,2.8-.5,0-.2,0-.4,0-.4,0-.6-.1-1.1-.5-1.4-.4-.4-1-.5-1.8-.5s-1.3.1-1.6.4-.6.7-.8,1.4l-1.5-.2c.1-.7.4-1.2.7-1.6.3-.4.8-.7,1.4-.9.6-.2,1.3-.3,2.1-.3s1.4,0,1.9.3c.5.2.9.4,1.1.7.2.3.4.6.5,1.1,0,.3,0,.8,0,1.5v2.1c0,1.5,0,2.4.1,2.8,0,.4.2.8.4,1.1h-1.7c-.2-.3-.3-.7-.3-1.2ZM160.9,262.7c-.6.2-1.4.4-2.6.6-.7,0-1.1.2-1.4.3-.3.1-.5.3-.6.5-.1.2-.2.5-.2.8,0,.4.2.8.5,1.1.3.3.8.4,1.4.4s1.2-.1,1.6-.4c.5-.3.8-.6,1-1.1.2-.4.3-.9.3-1.6v-.6Z"/>
            <path id="ArialMT-6e1" data-name="ArialMT-6e" class="st9" d="M165,267.4v-9.3h1.4v1.3c.7-1,1.7-1.5,3-1.5s1.1.1,1.6.3.8.5,1.1.8.4.7.5,1.2c0,.3,0,.8,0,1.5v5.7h-1.6v-5.7c0-.6,0-1.1-.2-1.4-.1-.3-.3-.6-.7-.8-.3-.2-.7-.3-1.1-.3-.7,0-1.3.2-1.7.6s-.7,1.2-.7,2.4v5.1h-1.6Z"/>
            <path id="ArialMT-63" class="st9" d="M181.1,264l1.6.2c-.2,1.1-.6,1.9-1.3,2.5-.7.6-1.6.9-2.6.9s-2.3-.4-3.1-1.3c-.8-.8-1.2-2-1.2-3.6s.2-1.9.5-2.6c.3-.8.8-1.3,1.5-1.7.7-.4,1.4-.6,2.2-.6s1.8.3,2.5.8c.6.5,1.1,1.2,1.2,2.2l-1.5.2c-.1-.6-.4-1.1-.8-1.4-.4-.3-.8-.5-1.4-.5-.8,0-1.4.3-1.9.9-.5.6-.7,1.5-.7,2.7s.2,2.2.7,2.7c.5.6,1.1.9,1.9.9s1.1-.2,1.6-.6c.4-.4.7-1,.8-1.8Z"/>
            <path id="ArialMT-651" data-name="ArialMT-65" class="st9" d="M190.4,264.4l1.6.2c-.3,1-.7,1.7-1.4,2.2-.7.5-1.6.8-2.7.8s-2.4-.4-3.2-1.3c-.8-.8-1.2-2-1.2-3.5s.4-2.8,1.2-3.7c.8-.9,1.9-1.3,3.1-1.3s2.3.4,3.1,1.3,1.2,2,1.2,3.6,0,.2,0,.4h-7c0,1,.3,1.8.9,2.4.5.5,1.2.8,2,.8s1.1-.2,1.5-.5c.4-.3.7-.8,1-1.5ZM185.2,261.8h5.2c0-.8-.3-1.4-.6-1.8-.5-.6-1.2-.9-2-.9s-1.3.2-1.8.7-.8,1.1-.8,2Z"/>
            <path id="ArialMT-64" class="st9" d="M200.1,267.4v-1.2c-.6.9-1.5,1.4-2.6,1.4s-1.4-.2-2.1-.6-1.1-1-1.5-1.7c-.3-.7-.5-1.6-.5-2.5s.2-1.8.5-2.5c.3-.8.8-1.3,1.4-1.7.6-.4,1.3-.6,2.1-.6s1.1.1,1.5.4c.4.2.8.5,1.1.9v-4.6h1.6v12.9h-1.5ZM195.1,262.7c0,1.2.3,2.1.8,2.7.5.6,1.1.9,1.8.9s1.3-.3,1.8-.8c.5-.6.7-1.4.7-2.6s-.2-2.2-.7-2.8c-.5-.6-1.1-.9-1.8-.9s-1.3.3-1.8.9c-.5.6-.7,1.5-.7,2.7Z"/>
            <path id="ArialMT-20" class="st9" d="M202.8,267.4"/>
            <path id="ArialMT-66" class="st9" d="M209.4,267.4v-8.1h-1.4v-1.2h1.4v-1c0-.6,0-1.1.2-1.4.2-.4.4-.7.8-1,.4-.3.9-.4,1.6-.4s.9,0,1.5.2l-.2,1.4c-.3,0-.6,0-.9,0-.5,0-.8.1-1,.3-.2.2-.3.6-.3,1.2v.9h1.8v1.2h-1.8v8.1h-1.6Z"/>
            <path id="ArialMT-69" class="st9" d="M214,256.3v-1.8h1.6v1.8h-1.6ZM214,267.4v-9.3h1.6v9.3h-1.6Z"/>
            <path id="ArialMT-641" data-name="ArialMT-64" class="st9" d="M224.1,267.4v-1.2c-.6.9-1.5,1.4-2.6,1.4s-1.4-.2-2.1-.6-1.1-1-1.5-1.7c-.3-.7-.5-1.6-.5-2.5s.2-1.8.5-2.5c.3-.8.8-1.3,1.4-1.7.6-.4,1.3-.6,2.1-.6s1.1.1,1.5.4c.4.2.8.5,1.1.9v-4.6h1.6v12.9h-1.5ZM219.1,262.7c0,1.2.3,2.1.8,2.7.5.6,1.1.9,1.8.9s1.3-.3,1.8-.8c.5-.6.7-1.4.7-2.6s-.2-2.2-.7-2.8c-.5-.6-1.1-.9-1.8-.9s-1.3.3-1.8.9c-.5.6-.7,1.5-.7,2.7Z"/>
            <path id="ArialMT-652" data-name="ArialMT-65" class="st9" d="M234.4,264.4l1.6.2c-.3,1-.7,1.7-1.4,2.2-.7.5-1.6.8-2.7.8s-2.4-.4-3.2-1.3c-.8-.8-1.2-2-1.2-3.5s.4-2.8,1.2-3.7c.8-.9,1.9-1.3,3.1-1.3s2.3.4,3.1,1.3,1.2,2,1.2,3.6,0,.2,0,.4h-7c0,1,.3,1.8.9,2.4.5.5,1.2.8,2,.8s1.1-.2,1.5-.5c.4-.3.7-.8,1-1.5ZM229.2,261.8h5.2c0-.8-.3-1.4-.6-1.8-.5-.6-1.2-.9-2-.9s-1.3.2-1.8.7-.8,1.1-.8,2Z"/>
            <path id="ArialMT-6c" class="st9" d="M238,267.4v-12.9h1.6v12.9h-1.6Z"/>
            <path id="ArialMT-691" data-name="ArialMT-69" class="st9" d="M242.1,256.3v-1.8h1.6v1.8h-1.6ZM242.1,267.4v-9.3h1.6v9.3h-1.6Z"/>
            <path id="ArialMT-74" class="st9" d="M249.5,266l.2,1.4c-.4,0-.8.1-1.2.1-.6,0-1,0-1.3-.3-.3-.2-.5-.4-.7-.7-.1-.3-.2-.9-.2-1.9v-5.4h-1.2v-1.2h1.2v-2.3l1.6-.9v3.3h1.6v1.2h-1.6v5.5c0,.5,0,.7,0,.9,0,.1.1.2.3.3.1,0,.3.1.5.1s.4,0,.7,0Z"/>
            <path id="ArialMT-79" class="st9" d="M251,271l-.2-1.5c.3,0,.6.1.9.1s.6,0,.8-.2c.2-.1.4-.3.5-.5,0-.2.3-.6.5-1.2,0,0,0-.2.1-.4l-3.5-9.4h1.7l1.9,5.4c.3.7.5,1.4.7,2.2.2-.7.4-1.4.6-2.1l2-5.4h1.6l-3.6,9.5c-.4,1-.7,1.7-.9,2.1-.3.5-.6.9-1,1.1-.4.2-.8.4-1.3.4s-.6,0-1-.2Z"/>
          </g>
        </g>
      </g>
      <g id="matplotlib.axis_2">
        <g id="ytick_1">
          <g id="line2d_5">
            <path id="m9283783de5" class="st8" d="M71,185.9h-6"/>
          </g>
          <g id="text_6">
            <g>
              <path id="ArialMT-314" data-name="ArialMT-31" class="st9" d="M39,193h-1.2v-7.8c-.3.3-.7.6-1.2.8s-.9.5-1.3.6v-1.2c.7-.3,1.3-.7,1.8-1.2.5-.5.9-.9,1.1-1.3h.8v10.1Z"/>
              <path id="ArialMT-305" data-name="ArialMT-30" class="st9" d="M42.1,188.1c0-1.2.1-2.1.4-2.9.2-.7.6-1.3,1.1-1.7.5-.4,1.1-.6,1.8-.6s1,.1,1.4.3c.4.2.7.5,1,.9.3.4.5.9.6,1.5.2.6.2,1.4.2,2.4s-.1,2.1-.4,2.8c-.2.7-.6,1.3-1.1,1.7-.5.4-1.1.6-1.8.6s-1.7-.3-2.3-1c-.7-.8-1-2.2-1-4.1ZM43.4,188.1c0,1.6.2,2.7.6,3.3.4.5.9.8,1.4.8s1-.3,1.4-.8.6-1.6.6-3.3-.2-2.7-.6-3.3c-.4-.5-.9-.8-1.4-.8s-1,.2-1.4.7c-.4.6-.6,1.7-.6,3.4Z"/>
              <path id="ArialMT-2212" class="st9" d="M54.8,180.2h-4.6v-.8h4.6v.8Z"/>
              <path id="ArialMT-321" data-name="ArialMT-32" class="st9" d="M60.3,182.4v.8h-4.6c0-.2,0-.4,0-.6.1-.3.3-.6.6-.9.3-.3.6-.7,1.1-1.1.8-.6,1.3-1.1,1.5-1.5.3-.4.4-.7.4-1s-.1-.6-.4-.9c-.2-.2-.6-.4-1-.4s-.7.1-1,.4c-.2.2-.4.6-.4,1h-.9c0-.8.3-1.3.7-1.6.4-.3.9-.5,1.6-.5s1.2.2,1.6.6c.4.4.6.8.6,1.4s0,.6-.2.8c-.1.3-.3.6-.6.9s-.7.7-1.3,1.2c-.5.4-.8.7-1,.9-.1.2-.3.3-.4.5h3.4Z"/>
            </g>
          </g>
        </g>
        <g id="ytick_2">
          <g id="line2d_6">
            <path id="m9283783de51" data-name="m9283783de5" class="st8" d="M71,135.1h-6"/>
          </g>
          <g id="text_7">
            <g>
              <path id="ArialMT-315" data-name="ArialMT-31" class="st9" d="M39,142.1h-1.2v-7.8c-.3.3-.7.6-1.2.8s-.9.5-1.3.6v-1.2c.7-.3,1.3-.7,1.8-1.2.5-.5.9-.9,1.1-1.3h.8v10.1Z"/>
              <path id="ArialMT-306" data-name="ArialMT-30" class="st9" d="M42.1,137.2c0-1.2.1-2.1.4-2.9.2-.7.6-1.3,1.1-1.7.5-.4,1.1-.6,1.8-.6s1,.1,1.4.3c.4.2.7.5,1,.9.3.4.5.9.6,1.5.2.6.2,1.4.2,2.4s-.1,2.1-.4,2.8c-.2.7-.6,1.3-1.1,1.7-.5.4-1.1.6-1.8.6s-1.7-.3-2.3-1c-.7-.8-1-2.2-1-4.1ZM43.4,137.2c0,1.6.2,2.7.6,3.3.4.5.9.8,1.4.8s1-.3,1.4-.8.6-1.6.6-3.3-.2-2.7-.6-3.3c-.4-.5-.9-.8-1.4-.8s-1,.2-1.4.7c-.4.6-.6,1.7-.6,3.4Z"/>
              <path id="ArialMT-22121" data-name="ArialMT-2212" class="st9" d="M54.8,129.3h-4.6v-.8h4.6v.8Z"/>
              <path id="ArialMT-316" data-name="ArialMT-31" class="st9" d="M59,132.4h-.9v-5.5c-.2.2-.5.4-.8.6s-.6.3-.9.4v-.8c.5-.2.9-.5,1.3-.8.4-.3.6-.6.8-.9h.6v7Z"/>
            </g>
          </g>
        </g>
        <g id="ytick_3">
          <g id="line2d_7">
            <path id="m9283783de52" data-name="m9283783de5" class="st8" d="M71,84.2h-6"/>
          </g>
          <g id="text_8">
            <g>
              <path id="ArialMT-317" data-name="ArialMT-31" class="st9" d="M44.7,91.3h-1.2v-7.8c-.3.3-.7.6-1.2.8s-.9.5-1.3.6v-1.2c.7-.3,1.3-.7,1.8-1.2.5-.5.9-.9,1.1-1.3h.8v10.1Z"/>
              <path id="ArialMT-307" data-name="ArialMT-30" class="st9" d="M47.9,86.3c0-1.2.1-2.1.4-2.9.2-.7.6-1.3,1.1-1.7.5-.4,1.1-.6,1.8-.6s1,.1,1.4.3c.4.2.7.5,1,.9.3.4.5.9.6,1.5.2.6.2,1.4.2,2.4s-.1,2.1-.4,2.8c-.2.7-.6,1.3-1.1,1.7-.5.4-1.1.6-1.8.6s-1.7-.3-2.3-1c-.7-.8-1-2.2-1-4.1ZM49.2,86.3c0,1.6.2,2.7.6,3.3.4.5.9.8,1.4.8s1-.3,1.4-.8.6-1.6.6-3.3-.2-2.7-.6-3.3c-.4-.5-.9-.8-1.4-.8s-1,.2-1.4.7c-.4.6-.6,1.7-.6,3.4Z"/>
              <path id="ArialMT-308" data-name="ArialMT-30" class="st9" d="M55.7,78.1c0-.8,0-1.5.3-2,.2-.5.4-.9.8-1.2.3-.3.8-.4,1.3-.4s.7,0,1,.2c.3.2.5.4.7.7.2.3.3.6.4,1,.1.4.2,1,.2,1.7s0,1.5-.3,2c-.2.5-.4.9-.8,1.2-.3.3-.8.4-1.3.4s-1.2-.2-1.6-.7c-.5-.6-.7-1.5-.7-2.9ZM56.6,78.1c0,1.2.1,1.9.4,2.3.3.4.6.6,1,.6s.7-.2,1-.6.4-1.1.4-2.3-.1-1.9-.4-2.3c-.3-.4-.6-.6-1-.6s-.7.2-.9.5c-.3.4-.4,1.2-.4,2.4Z"/>
            </g>
          </g>
        </g>
        <g id="ytick_4">
          <g id="line2d_8">
            <path id="m9283783de53" data-name="m9283783de5" class="st8" d="M71,33.3h-6"/>
          </g>
          <g id="text_9">
            <g>
              <path id="ArialMT-318" data-name="ArialMT-31" class="st9" d="M44.7,40.4h-1.2v-7.8c-.3.3-.7.6-1.2.8s-.9.5-1.3.6v-1.2c.7-.3,1.3-.7,1.8-1.2.5-.5.9-.9,1.1-1.3h.8v10.1Z"/>
              <path id="ArialMT-309" data-name="ArialMT-30" class="st9" d="M47.9,35.4c0-1.2.1-2.1.4-2.9.2-.7.6-1.3,1.1-1.7.5-.4,1.1-.6,1.8-.6s1,.1,1.4.3c.4.2.7.5,1,.9.3.4.5.9.6,1.5.2.6.2,1.4.2,2.4s-.1,2.1-.4,2.8c-.2.7-.6,1.3-1.1,1.7-.5.4-1.1.6-1.8.6s-1.7-.3-2.3-1c-.7-.8-1-2.2-1-4.1ZM49.2,35.4c0,1.6.2,2.7.6,3.3.4.5.9.8,1.4.8s1-.3,1.4-.8.6-1.6.6-3.3-.2-2.7-.6-3.3c-.4-.5-.9-.8-1.4-.8s-1,.2-1.4.7c-.4.6-.6,1.7-.6,3.4Z"/>
              <path id="ArialMT-319" data-name="ArialMT-31" class="st9" d="M59,30.6h-.9v-5.5c-.2.2-.5.4-.8.6s-.6.3-.9.4v-.8c.5-.2.9-.5,1.3-.8.4-.3.6-.6.8-.9h.6v7Z"/>
            </g>
          </g>
        </g>
        <g id="text_10">
          <g>
            <path id="ArialMT-631" data-name="ArialMT-63" class="st9" d="M22.6,211l.2-1.6c1.1.2,1.9.6,2.5,1.3.6.7.9,1.6.9,2.6s-.4,2.3-1.3,3.1c-.8.8-2,1.2-3.6,1.2s-1.9-.2-2.6-.5c-.8-.3-1.3-.8-1.7-1.5-.4-.7-.6-1.4-.6-2.2s.3-1.8.8-2.5c.5-.6,1.2-1.1,2.2-1.2l.2,1.5c-.6.1-1.1.4-1.4.8-.3.4-.5.8-.5,1.4,0,.8.3,1.4.9,1.9.6.5,1.5.7,2.7.7s2.2-.2,2.7-.7c.6-.5.9-1.1.9-1.9s-.2-1.1-.6-1.6c-.4-.4-1-.7-1.8-.8Z"/>
            <path id="ArialMT-6f" class="st9" d="M21.3,208.7c-1.7,0-3-.5-3.8-1.4-.7-.8-1-1.8-1-2.9s.4-2.3,1.3-3.1c.8-.8,2-1.2,3.5-1.2s2.1.2,2.8.5c.7.4,1.2.9,1.6,1.6.4.7.6,1.4.6,2.3,0,1.3-.4,2.4-1.3,3.2-.8.8-2,1.2-3.6,1.2ZM21.3,207.1c1.2,0,2.1-.3,2.7-.8.6-.5.9-1.2.9-2s-.3-1.4-.9-2c-.6-.5-1.5-.8-2.7-.8s-2,.3-2.6.8-.9,1.2-.9,2,.3,1.4.9,2c.6.5,1.5.8,2.7.8Z"/>
            <path id="ArialMT-6e2" data-name="ArialMT-6e" class="st9" d="M26,198.1h-9.3v-1.4h1.3c-1-.7-1.5-1.7-1.5-3s.1-1.1.3-1.6.5-.8.8-1.1.7-.4,1.2-.5c.3,0,.8,0,1.5,0h5.7v1.6h-5.7c-.6,0-1.1,0-1.4.2-.3.1-.6.3-.8.7-.2.3-.3.7-.3,1.1,0,.7.2,1.3.6,1.7s1.2.7,2.4.7h5.1v1.6Z"/>
            <path id="ArialMT-632" data-name="ArialMT-63" class="st9" d="M22.6,182l.2-1.6c1.1.2,1.9.6,2.5,1.3.6.7.9,1.6.9,2.6s-.4,2.3-1.3,3.1c-.8.8-2,1.2-3.6,1.2s-1.9-.2-2.6-.5c-.8-.3-1.3-.8-1.7-1.5-.4-.7-.6-1.4-.6-2.2s.3-1.8.8-2.5c.5-.6,1.2-1.1,2.2-1.2l.2,1.5c-.6.1-1.1.4-1.4.8-.3.4-.5.8-.5,1.4,0,.8.3,1.4.9,1.9.6.5,1.5.7,2.7.7s2.2-.2,2.7-.7c.6-.5.9-1.1.9-1.9s-.2-1.1-.6-1.6c-.4-.4-1-.7-1.8-.8Z"/>
            <path id="ArialMT-653" data-name="ArialMT-65" class="st9" d="M23,172.7l.2-1.6c1,.3,1.7.7,2.2,1.4.5.7.8,1.6.8,2.7s-.4,2.4-1.3,3.2c-.8.8-2,1.2-3.5,1.2s-2.8-.4-3.7-1.2c-.9-.8-1.3-1.9-1.3-3.1s.4-2.3,1.3-3.1,2-1.2,3.6-1.2.2,0,.4,0v7c1,0,1.8-.3,2.4-.9.5-.5.8-1.2.8-2s-.2-1.1-.5-1.5c-.3-.4-.8-.7-1.5-1ZM20.4,177.9v-5.2c-.8,0-1.4.3-1.8.6-.6.5-.9,1.2-.9,2s.2,1.3.7,1.8,1.1.8,2,.8Z"/>
            <path id="ArialMT-6e3" data-name="ArialMT-6e" class="st9" d="M26,169.1h-9.3v-1.4h1.3c-1-.7-1.5-1.7-1.5-3s.1-1.1.3-1.6.5-.8.8-1.1.7-.4,1.2-.5c.3,0,.8,0,1.5,0h5.7v1.6h-5.7c-.6,0-1.1,0-1.4.2-.3.1-.6.3-.8.7-.2.3-.3.7-.3,1.1,0,.7.2,1.3.6,1.7s1.2.7,2.4.7h5.1v1.6Z"/>
            <path id="ArialMT-741" data-name="ArialMT-74" class="st9" d="M24.6,155.6l1.4-.2c0,.4.1.8.1,1.2,0,.6,0,1-.3,1.3-.2.3-.4.5-.7.7-.3.1-.9.2-1.9.2h-5.4v1.2h-1.2v-1.2h-2.3l-.9-1.6h3.3v-1.6h1.2v1.6h5.5c.5,0,.7,0,.9,0,.1,0,.2-.1.3-.3,0-.1.1-.3.1-.5s0-.4,0-.7Z"/>
            <path id="ArialMT-72" class="st9" d="M26,154.1h-9.3v-1.4h1.4c-.7-.4-1.1-.7-1.3-1-.2-.3-.3-.6-.3-1,0-.5.2-1.1.5-1.6l1.5.5c-.2.4-.3.8-.3,1.2s.1.7.3.9.5.5.9.6c.6.2,1.2.3,1.8.3h4.9v1.6Z"/>
            <path id="ArialMT-611" data-name="ArialMT-61" class="st9" d="M24.8,142c.5.6.8,1.2,1.1,1.7.2.5.3,1.1.3,1.7,0,1-.3,1.8-.8,2.4s-1.1.8-1.9.8-.9-.1-1.3-.3c-.4-.2-.7-.5-.9-.8s-.4-.7-.5-1.1c0-.3-.2-.8-.2-1.4-.2-1.3-.3-2.2-.5-2.8-.2,0-.4,0-.4,0-.6,0-1.1.1-1.4.5-.4.4-.5,1-.5,1.8s.1,1.3.4,1.6.7.6,1.4.8l-.2,1.5c-.7-.1-1.2-.4-1.6-.7-.4-.3-.7-.8-.9-1.4-.2-.6-.3-1.3-.3-2.1s0-1.4.3-1.9c.2-.5.4-.9.7-1.1.3-.2.6-.4,1.1-.5.3,0,.8,0,1.5,0h2.1c1.5,0,2.4,0,2.8-.1.4,0,.8-.2,1.1-.4v1.7c-.3.2-.7.3-1.2.3ZM21.3,142.1c.2.6.4,1.4.6,2.6,0,.7.2,1.1.3,1.4.1.3.3.5.5.6.2.1.5.2.8.2.4,0,.8-.2,1.1-.5.3-.3.4-.8.4-1.4s-.1-1.2-.4-1.6c-.3-.5-.6-.8-1.1-1-.4-.2-.9-.3-1.6-.3h-.6Z"/>
            <path id="ArialMT-742" data-name="ArialMT-74" class="st9" d="M24.6,134.6l1.4-.2c0,.4.1.8.1,1.2,0,.6,0,1-.3,1.3-.2.3-.4.5-.7.7-.3.1-.9.2-1.9.2h-5.4v1.2h-1.2v-1.2h-2.3l-.9-1.6h3.3v-1.6h1.2v1.6h5.5c.5,0,.7,0,.9,0,.1,0,.2-.1.3-.3,0-.1.1-.3.1-.5s0-.4,0-.7Z"/>
            <path id="ArialMT-692" data-name="ArialMT-69" class="st9" d="M14.9,133h-1.8v-1.6h1.8v1.6ZM26,133h-9.3v-1.6h9.3v1.6Z"/>
            <path id="ArialMT-6f1" data-name="ArialMT-6f" class="st9" d="M21.3,129.6c-1.7,0-3-.5-3.8-1.4-.7-.8-1-1.8-1-2.9s.4-2.3,1.3-3.1c.8-.8,2-1.2,3.5-1.2s2.1.2,2.8.5c.7.4,1.2.9,1.6,1.6.4.7.6,1.4.6,2.3,0,1.3-.4,2.4-1.3,3.2-.8.8-2,1.2-3.6,1.2ZM21.3,128c1.2,0,2.1-.3,2.7-.8.6-.5.9-1.2.9-2s-.3-1.4-.9-2c-.6-.5-1.5-.8-2.7-.8s-2,.3-2.6.8-.9,1.2-.9,2,.3,1.4.9,2c.6.5,1.5.8,2.7.8Z"/>
            <path id="ArialMT-6e4" data-name="ArialMT-6e" class="st9" d="M26,119h-9.3v-1.4h1.3c-1-.7-1.5-1.7-1.5-3s.1-1.1.3-1.6.5-.8.8-1.1.7-.4,1.2-.5c.3,0,.8,0,1.5,0h5.7v1.6h-5.7c-.6,0-1.1,0-1.4.2-.3.1-.6.3-.8.7-.2.3-.3.7-.3,1.1,0,.7.2,1.3.6,1.7s1.2.7,2.4.7h5.1v1.6Z"/>
            <path id="ArialMT-201" data-name="ArialMT-20" class="st9" d="M26,110.2"/>
            <path id="ArialMT-6f2" data-name="ArialMT-6f" class="st9" d="M21.3,104.6c-1.7,0-3-.5-3.8-1.4-.7-.8-1-1.8-1-2.9s.4-2.3,1.3-3.1c.8-.8,2-1.2,3.5-1.2s2.1.2,2.8.5c.7.4,1.2.9,1.6,1.6.4.7.6,1.4.6,2.3,0,1.3-.4,2.4-1.3,3.2-.8.8-2,1.2-3.6,1.2ZM21.3,103c1.2,0,2.1-.3,2.7-.8.6-.5.9-1.2.9-2s-.3-1.4-.9-2c-.6-.5-1.5-.8-2.7-.8s-2,.3-2.6.8-.9,1.2-.9,2,.3,1.4.9,2c.6.5,1.5.8,2.7.8Z"/>
            <path id="ArialMT-661" data-name="ArialMT-66" class="st9" d="M26,93.6h-8.1v1.4h-1.2v-1.4h-1c-.6,0-1.1,0-1.4-.2-.4-.2-.7-.4-1-.8-.3-.4-.4-.9-.4-1.6s0-.9.2-1.5l1.4.2c0,.3,0,.6,0,.9,0,.5.1.8.3,1,.2.2.6.3,1.2.3h.9v-1.8h1.2v1.8h8.1v1.6Z"/>
            <path id="ArialMT-202" data-name="ArialMT-20" class="st9" d="M26,90.2"/>
            <path id="ArialMT-45" class="st9" d="M26,83.8h-12.9v-9.3h1.5v7.6h3.9v-7.1h1.5v7.1h4.4v-7.9h1.5v9.6Z"/>
            <path id="ArialMT-52" class="st9" d="M26,71.8h-12.9v-5.7c0-1.1.1-2,.3-2.6.2-.6.6-1.1,1.2-1.4.6-.4,1.2-.5,1.9-.5s1.7.3,2.3.9c.6.6,1,1.5,1.2,2.7.2-.5.4-.8.6-1,.5-.5,1-1,1.7-1.4l3.5-2.2v2.1l-2.7,1.7c-.8.5-1.4.9-1.8,1.2-.4.3-.7.6-.9.9-.2.3-.3.5-.3.8,0,.2,0,.5,0,.9v2h5.7v1.7ZM18.8,70.1v-3.7c0-.8,0-1.4-.2-1.8-.2-.4-.4-.8-.8-1s-.7-.3-1.2-.3c-.6,0-1.1.2-1.5.7-.4.4-.6,1.1-.6,2.1v4.1h4.3Z"/>
            <path id="ArialMT-203" data-name="ArialMT-20" class="st9" d="M26,60.2"/>
            <path id="ArialMT-28" class="st9" d="M29.8,51c-1.1.9-2.4,1.6-3.9,2.2-1.5.6-3,.9-4.6.9s-2.7-.2-4-.7c-1.5-.5-3-1.3-4.4-2.4v-1.1c1.2.7,2.1,1.2,2.6,1.4.8.4,1.7.6,2.5.8,1.1.3,2.2.4,3.3.4,2.8,0,5.6-.9,8.4-2.6v1.1Z"/>
            <path id="ArialMT-6e5" data-name="ArialMT-6e" class="st9" d="M26,48h-9.3v-1.4h1.3c-1-.7-1.5-1.7-1.5-3s.1-1.1.3-1.6.5-.8.8-1.1.7-.4,1.2-.5c.3,0,.8,0,1.5,0h5.7v1.6h-5.7c-.6,0-1.1,0-1.4.2-.3.1-.6.3-.8.7-.2.3-.3.7-.3,1.1,0,.7.2,1.3.6,1.7s1.2.7,2.4.7h5.1v1.6Z"/>
            <path id="ArialMT-4d" class="st9" d="M26,37.9h-12.9v-2.6l9.1-3c.9-.3,1.5-.5,1.9-.6-.5-.1-1.2-.4-2.1-.7l-9-3.1v-2.3h12.9v1.6h-10.8l10.8,3.7v1.5l-11,3.7h11v1.6Z"/>
            <path id="ArialMT-29" class="st9" d="M29.8,22v1.1c-2.8-1.8-5.6-2.6-8.4-2.6s-2.2.1-3.3.4c-.9.2-1.7.5-2.5.8-.5.2-1.4.7-2.6,1.4v-1.1c1.5-1.1,2.9-1.9,4.4-2.4,1.3-.5,2.6-.7,4-.7s3.1.3,4.6.9c1.5.6,2.8,1.3,3.9,2.2Z"/>
          </g>
        </g>
      </g>
      <g id="line2d_9">
        <g class="st29">
          <path class="st3" d="M90.4,47l16.3,16.3,18.8,17.2,19.9,17.7,20.7,18.1,21.4,18.4,22,18.6,22.4,18.7,23,18.4,24.6,16.2,21.2,7.6"/>
        </g>
        <g class="st17">
          <g>
            <path id="m0a7d9288ca" class="st14" d="M90.4,44l-2.9,2.1,1.1,3.4h3.5l1.1-3.4-2.9-2.1Z"/>
            <path id="m0a7d9288ca1" data-name="m0a7d9288ca" class="st14" d="M106.7,60.3l-2.9,2.1,1.1,3.4h3.5l1.1-3.4-2.9-2.1Z"/>
            <path id="m0a7d9288ca2" data-name="m0a7d9288ca" class="st14" d="M125.5,77.5l-2.9,2.1,1.1,3.4h3.5l1.1-3.4-2.9-2.1Z"/>
            <path id="m0a7d9288ca3" data-name="m0a7d9288ca" class="st14" d="M145.3,95.1l-2.9,2.1,1.1,3.4h3.5l1.1-3.4-2.9-2.1Z"/>
            <path id="m0a7d9288ca4" data-name="m0a7d9288ca" class="st14" d="M166,113.2l-2.9,2.1,1.1,3.4h3.5l1.1-3.4-2.9-2.1Z"/>
            <path id="m0a7d9288ca5" data-name="m0a7d9288ca" class="st14" d="M187.4,131.6l-2.9,2.1,1.1,3.4h3.5l1.1-3.4-2.9-2.1Z"/>
            <path id="m0a7d9288ca6" data-name="m0a7d9288ca" class="st14" d="M209.3,150.2l-2.9,2.1,1.1,3.4h3.5l1.1-3.4-2.9-2.1Z"/>
            <path id="m0a7d9288ca7" data-name="m0a7d9288ca" class="st14" d="M231.8,168.9l-2.9,2.1,1.1,3.4h3.5l1.1-3.4-2.9-2.1Z"/>
            <path id="m0a7d9288ca8" data-name="m0a7d9288ca" class="st14" d="M254.8,187.2l-2.9,2.1,1.1,3.4h3.5l1.1-3.4-2.9-2.1Z"/>
            <path id="m0a7d9288ca9" data-name="m0a7d9288ca" class="st14" d="M279.5,203.4l-2.9,2.1,1.1,3.4h3.5l1.1-3.4-2.9-2.1Z"/>
            <path id="m0a7d9288ca10" data-name="m0a7d9288ca" class="st14" d="M300.7,211l-2.9,2.1,1.1,3.4h3.5l1.1-3.4-2.9-2.1Z"/>
          </g>
        </g>
      </g>
      <g id="line2d_10">
        <g class="st20">
          <path class="st7" d="M90.1,41l14.7,11,16.4,10.6,17.7,10.2,19,10.1,20.2,10.6,21.1,11.4,21.8,12.3,22.6,12.6,24.3,11,19.7,4.9"/>
        </g>
        <g class="st18">
          <g>
            <path id="m665c97483c" class="st28" d="M87.1,44h6v-6h-6v6Z"/>
            <path id="m665c97483c1" data-name="m665c97483c" class="st28" d="M101.8,54.9h6v-6h-6v6Z"/>
            <path id="m665c97483c2" data-name="m665c97483c" class="st28" d="M118.2,65.5h6v-6h-6v6Z"/>
            <path id="m665c97483c3" data-name="m665c97483c" class="st28" d="M135.9,75.6h6v-6h-6v6Z"/>
            <path id="m665c97483c4" data-name="m665c97483c" class="st28" d="M154.9,85.8h6v-6h-6v6Z"/>
            <path id="m665c97483c5" data-name="m665c97483c" class="st28" d="M175.1,96.4h6v-6h-6v6Z"/>
            <path id="m665c97483c6" data-name="m665c97483c" class="st28" d="M196.2,107.8h6v-6h-6v6Z"/>
            <path id="m665c97483c7" data-name="m665c97483c" class="st28" d="M218,120.1h6v-6h-6v6Z"/>
            <path id="m665c97483c8" data-name="m665c97483c" class="st28" d="M240.6,132.7h6v-6h-6v6Z"/>
            <path id="m665c97483c9" data-name="m665c97483c" class="st28" d="M265,143.7h6v-6h-6v6Z"/>
            <path id="m665c97483c10" data-name="m665c97483c" class="st28" d="M284.6,148.6h6v-6h-6v6Z"/>
          </g>
        </g>
      </g>
      <g id="line2d_11">
        <g class="st19">
          <path class="st1" d="M90.6,45.3l14.1,14.5,13.2,15.2,10.6,15.4,8.4,15.6,7.2,15.8,6.6,16,6.5,16.1,6.5,15.7,6.5,13.3,3.7,6"/>
        </g>
        <g class="st25">
          <g>
            <path id="m5513caf5bb" class="st13" d="M90.6,49.5l2.5-4.2-2.5-4.2-2.5,4.2,2.5,4.2Z"/>
            <path id="m5513caf5bb1" data-name="m5513caf5bb" class="st13" d="M104.7,64l2.5-4.2-2.5-4.2-2.5,4.2,2.5,4.2Z"/>
            <path id="m5513caf5bb2" data-name="m5513caf5bb" class="st13" d="M117.9,79.2l2.5-4.2-2.5-4.2-2.5,4.2,2.5,4.2Z"/>
            <path id="m5513caf5bb3" data-name="m5513caf5bb" class="st13" d="M128.5,94.6l2.5-4.2-2.5-4.2-2.5,4.2,2.5,4.2Z"/>
            <path id="m5513caf5bb4" data-name="m5513caf5bb" class="st13" d="M136.9,110.2l2.5-4.2-2.5-4.2-2.5,4.2,2.5,4.2Z"/>
            <path id="m5513caf5bb5" data-name="m5513caf5bb" class="st13" d="M144.1,126.1l2.5-4.2-2.5-4.2-2.5,4.2,2.5,4.2Z"/>
            <path id="m5513caf5bb6" data-name="m5513caf5bb" class="st13" d="M150.7,142.1l2.5-4.2-2.5-4.2-2.5,4.2,2.5,4.2Z"/>
            <path id="m5513caf5bb7" data-name="m5513caf5bb" class="st13" d="M157.1,158.2l2.5-4.2-2.5-4.2-2.5,4.2,2.5,4.2Z"/>
            <path id="m5513caf5bb8" data-name="m5513caf5bb" class="st13" d="M163.6,173.9l2.5-4.2-2.5-4.2-2.5,4.2,2.5,4.2Z"/>
            <path id="m5513caf5bb9" data-name="m5513caf5bb" class="st13" d="M170.1,187.2l2.5-4.2-2.5-4.2-2.5,4.2,2.5,4.2Z"/>
            <path id="m5513caf5bb10" data-name="m5513caf5bb" class="st13" d="M173.8,193.2l2.5-4.2-2.5-4.2-2.5,4.2,2.5,4.2Z"/>
          </g>
        </g>
      </g>
      <g id="line2d_12">
        <g class="st22">
          <path class="st4" d="M89,43l12.6,13.1,11.3,13.4,8.8,13.5,7,13.6,6.1,13.7,5.7,13.9,5.8,13.8,6.2,13.2,6.5,10.8,3.8,4.6"/>
        </g>
        <g class="st21">
          <g>
            <path id="mcc20d6b929" class="st26" d="M89,40l-.7,2.1h-2.2l1.8,1.3-.7,2.1,1.8-1.3,1.8,1.3-.7-2.1,1.8-1.3h-2.2l-.7-2.1Z"/>
            <path id="mcc20d6b9291" data-name="mcc20d6b929" class="st26" d="M101.6,53l-.7,2.1h-2.2l1.8,1.3-.7,2.1,1.8-1.3,1.8,1.3-.7-2.1,1.8-1.3h-2.2l-.7-2.1Z"/>
            <path id="mcc20d6b9292" data-name="mcc20d6b929" class="st26" d="M112.9,66.5l-.7,2.1h-2.2l1.8,1.3-.7,2.1,1.8-1.3,1.8,1.3-.7-2.1,1.8-1.3h-2.2l-.7-2.1Z"/>
            <path id="mcc20d6b9293" data-name="mcc20d6b929" class="st26" d="M121.6,80l-.7,2.1h-2.2l1.8,1.3-.7,2.1,1.8-1.3,1.8,1.3-.7-2.1,1.8-1.3h-2.2l-.7-2.1Z"/>
            <path id="mcc20d6b9294" data-name="mcc20d6b929" class="st26" d="M128.7,93.6l-.7,2.1h-2.2l1.8,1.3-.7,2.1,1.8-1.3,1.8,1.3-.7-2.1,1.8-1.3h-2.2l-.7-2.1Z"/>
            <path id="mcc20d6b9295" data-name="mcc20d6b929" class="st26" d="M134.7,107.3l-.7,2.1h-2.2l1.8,1.3-.7,2.1,1.8-1.3,1.8,1.3-.7-2.1,1.8-1.3h-2.2l-.7-2.1Z"/>
            <path id="mcc20d6b9296" data-name="mcc20d6b929" class="st26" d="M140.4,121.2l-.7,2.1h-2.2l1.8,1.3-.7,2.1,1.8-1.3,1.8,1.3-.7-2.1,1.8-1.3h-2.2l-.7-2.1Z"/>
            <path id="mcc20d6b9297" data-name="mcc20d6b929" class="st26" d="M146.3,135l-.7,2.1h-2.2l1.8,1.3-.7,2.1,1.8-1.3,1.8,1.3-.7-2.1,1.8-1.3h-2.2l-.7-2.1Z"/>
            <path id="mcc20d6b9298" data-name="mcc20d6b929" class="st26" d="M152.5,148.3l-.7,2.1h-2.2l1.8,1.3-.7,2.1,1.8-1.3,1.8,1.3-.7-2.1,1.8-1.3h-2.2l-.7-2.1Z"/>
            <path id="mcc20d6b9299" data-name="mcc20d6b929" class="st26" d="M159,159.1l-.7,2.1h-2.2l1.8,1.3-.7,2.1,1.8-1.3,1.8,1.3-.7-2.1,1.8-1.3h-2.2l-.7-2.1Z"/>
            <path id="mcc20d6b92910" data-name="mcc20d6b929" class="st26" d="M162.8,163.7l-.7,2.1h-2.2l1.8,1.3-.7,2.1,1.8-1.3,1.8,1.3-.7-2.1,1.8-1.3h-2.2l-.7-2.1Z"/>
          </g>
        </g>
      </g>
      <g id="line2d_13">
        <g class="st24">
          <path class="st6" d="M90.6,45.3l14.1,14.5,13.2,15.2,10.6,15.4,8.4,15.6,7.2,15.8,6.6,16,6.5,16.1,6.5,15.7,6.5,13.3,3.7,6"/>
        </g>
        <g class="st23">
          <g>
            <path id="m3e4881ec61" class="st12" d="M90.6,48.3l3-6h-6l3,6Z"/>
            <path id="m3e4881ec611" data-name="m3e4881ec61" class="st12" d="M104.7,62.8l3-6h-6l3,6Z"/>
            <path id="m3e4881ec612" data-name="m3e4881ec61" class="st12" d="M117.9,77.9l3-6h-6l3,6Z"/>
            <path id="m3e4881ec613" data-name="m3e4881ec61" class="st12" d="M128.5,93.4l3-6h-6l3,6Z"/>
            <path id="m3e4881ec614" data-name="m3e4881ec61" class="st12" d="M136.9,109l3-6h-6l3,6Z"/>
            <path id="m3e4881ec615" data-name="m3e4881ec61" class="st12" d="M144.1,124.8l3-6h-6l3,6Z"/>
            <path id="m3e4881ec616" data-name="m3e4881ec61" class="st12" d="M150.7,140.9l3-6h-6l3,6Z"/>
            <path id="m3e4881ec617" data-name="m3e4881ec61" class="st12" d="M157.1,157l3-6h-6l3,6Z"/>
            <path id="m3e4881ec618" data-name="m3e4881ec61" class="st12" d="M163.6,172.6l3-6h-6l3,6Z"/>
            <path id="m3e4881ec619" data-name="m3e4881ec61" class="st12" d="M170.1,186l3-6h-6l3,6Z"/>
            <path id="m3e4881ec6110" data-name="m3e4881ec61" class="st12" d="M173.8,191.9l3-6h-6l3,6Z"/>
          </g>
        </g>
      </g>
      <g id="line2d_14">
        <g class="st16">
          <path class="st5" d="M81.9,22.5l.3.4.3.3.3.3.2.2.2.2.2.2h.1c0,.1.1.2.1.2h0c0,0,0,0,0,0"/>
        </g>
        <g class="st15">
          <g>
            <path id="mf045c9a774" class="st27" d="M78.9,22.5l6,3v-6l-6,3Z"/>
            <path id="mf045c9a7741" data-name="mf045c9a774" class="st27" d="M79.2,22.9l6,3v-6l-6,3Z"/>
            <path id="mf045c9a7742" data-name="mf045c9a774" class="st27" d="M79.5,23.2l6,3v-6l-6,3Z"/>
            <path id="mf045c9a7743" data-name="mf045c9a774" class="st27" d="M79.8,23.5l6,3v-6l-6,3Z"/>
            <path id="mf045c9a7744" data-name="mf045c9a774" class="st27" d="M80,23.7l6,3v-6l-6,3Z"/>
            <path id="mf045c9a7745" data-name="mf045c9a774" class="st27" d="M80.2,23.9l6,3v-6l-6,3Z"/>
            <path id="mf045c9a7746" data-name="mf045c9a774" class="st27" d="M80.4,24l6,3v-6l-6,3Z"/>
            <path id="mf045c9a7747" data-name="mf045c9a774" class="st27" d="M80.5,24.2l6,3v-6l-6,3Z"/>
            <path id="mf045c9a7748" data-name="mf045c9a774" class="st27" d="M80.7,24.3l6,3v-6l-6,3Z"/>
            <path id="mf045c9a7749" data-name="mf045c9a774" class="st27" d="M80.7,24.3l6,3v-6l-6,3Z"/>
            <path id="mf045c9a77410" data-name="mf045c9a774" class="st27" d="M80.7,24.3l6,3v-6l-6,3Z"/>
          </g>
        </g>
      </g>
      <g id="patch_3">
        <path class="st2" d="M71,223.6V13"/>
      </g>
      <g id="patch_4">
        <path class="st2" d="M71,223.6h240.6"/>
      </g>
      <g id="legend_1">
        <g id="patch_5">
          <path class="st10" d="M356.1,146h173.8c1.6,0,2.4-.8,2.4-2.4V42.4c0-1.6-.8-2.4-2.4-2.4h-173.8c-1.6,0-2.4.8-2.4,2.4v101.2c0,1.6.8,2.4,2.4,2.4Z"/>
        </g>
        <g id="line2d_15">
          <path class="st3" d="M358.5,49.4h24"/>
          <path id="m0a7d9288ca11" data-name="m0a7d9288ca" class="st14" d="M370.5,46.4l-2.9,2.1,1.1,3.4h3.5l1.1-3.4-2.9-2.1Z"/>
        </g>
        <g id="text_11">
          <g>
            <path id="ArialMT-654" data-name="ArialMT-65" class="st9" d="M397.2,51.6h1.1c-.2.8-.5,1.3-1,1.6-.5.4-1.1.5-1.8.5s-1.6-.3-2.2-.8c-.5-.6-.8-1.3-.8-2.4s.3-1.9.8-2.4c.5-.6,1.2-.9,2.1-.9s1.5.3,2,.8.8,1.4.8,2.4,0,.2,0,.3h-4.6c0,.7.2,1.2.6,1.6.3.4.8.5,1.3.5s.7-.1,1-.3c.3-.2.5-.5.7-1ZM393.7,49.8h3.5c0-.5-.2-.9-.4-1.2-.3-.4-.8-.6-1.3-.6s-.9.2-1.2.5-.5.8-.5,1.3Z"/>
            <path id="ArialMT-6e6" data-name="ArialMT-6e" class="st9" d="M399.6,53.6v-6.2h.9v.9c.5-.7,1.1-1,2-1s.7,0,1,.2.6.3.7.5.3.5.3.8c0,.2,0,.5,0,1v3.8h-1.1v-3.8c0-.4,0-.8-.1-1,0-.2-.2-.4-.4-.5-.2-.1-.5-.2-.7-.2-.4,0-.8.1-1.2.4s-.5.8-.5,1.6v3.4h-1.1Z"/>
            <path id="ArialMT-642" data-name="ArialMT-64" class="st9" d="M410.3,53.6v-.8c-.4.6-1,.9-1.7.9s-1-.1-1.4-.4-.7-.7-1-1.1c-.2-.5-.3-1.1-.3-1.7s.1-1.2.3-1.7c.2-.5.5-.9.9-1.2.4-.3.9-.4,1.4-.4s.7,0,1,.2c.3.2.5.4.7.6v-3.1h1v8.6h-1ZM406.9,50.5c0,.8.2,1.4.5,1.8.3.4.7.6,1.2.6s.9-.2,1.2-.6c.3-.4.5-1,.5-1.7s-.2-1.5-.5-1.9c-.3-.4-.7-.6-1.2-.6s-.9.2-1.2.6c-.3.4-.5,1-.5,1.8Z"/>
            <path id="ArialMT-6f3" data-name="ArialMT-6f" class="st9" d="M412.5,50.4c0-1.2.3-2,1-2.6.5-.5,1.2-.7,2-.7s1.6.3,2.1.8c.5.6.8,1.3.8,2.3s-.1,1.4-.4,1.9c-.2.5-.6.8-1,1.1-.5.3-1,.4-1.5.4-.9,0-1.6-.3-2.1-.8-.5-.6-.8-1.4-.8-2.4ZM413.6,50.4c0,.8.2,1.4.5,1.8.3.4.8.6,1.3.6s1-.2,1.3-.6c.3-.4.5-1,.5-1.8s-.2-1.4-.5-1.7-.8-.6-1.3-.6-1,.2-1.3.6c-.3.4-.5,1-.5,1.8Z"/>
            <path id="ArialMT-633" data-name="ArialMT-63" class="st9" d="M423.6,51.3h1c-.1.8-.4,1.4-.9,1.8-.5.4-1,.6-1.7.6s-1.5-.3-2.1-.8c-.5-.6-.8-1.4-.8-2.4s.1-1.3.3-1.8c.2-.5.6-.9,1-1.1.5-.3,1-.4,1.5-.4s1.2.2,1.7.5c.4.3.7.8.8,1.5l-1,.2c0-.4-.3-.7-.5-.9-.2-.2-.5-.3-.9-.3-.5,0-1,.2-1.3.6-.3.4-.5,1-.5,1.8s.2,1.4.5,1.8c.3.4.7.6,1.3.6s.8-.1,1-.4c.3-.3.5-.6.5-1.2Z"/>
            <path id="ArialMT-791" data-name="ArialMT-79" class="st9" d="M425.5,56v-1c.1,0,.3,0,.5,0s.4,0,.6-.1c.1,0,.3-.2.3-.3,0-.1.2-.4.3-.8,0,0,0-.1,0-.3l-2.4-6.2h1.1l1.3,3.6c.2.5.3.9.5,1.4.1-.5.3-1,.4-1.4l1.3-3.6h1.1l-2.4,6.3c-.3.7-.5,1.2-.6,1.4-.2.3-.4.6-.6.8-.2.2-.5.2-.9.2s-.4,0-.7-.1Z"/>
            <path id="ArialMT-743" data-name="ArialMT-74" class="st9" d="M433.9,52.6l.2.9c-.3,0-.6,0-.8,0-.4,0-.7,0-.9-.2-.2-.1-.4-.3-.4-.5,0-.2-.1-.6-.1-1.2v-3.6h-.8v-.8h.8v-1.5l1-.6v2.2h1.1v.8h-1.1v3.6c0,.3,0,.5,0,.6,0,0,0,.2.2.2,0,0,.2,0,.4,0s.3,0,.5,0Z"/>
            <path id="ArialMT-6f4" data-name="ArialMT-6f" class="st9" d="M434.5,50.4c0-1.2.3-2,1-2.6.5-.5,1.2-.7,2-.7s1.6.3,2.1.8c.5.6.8,1.3.8,2.3s-.1,1.4-.4,1.9c-.2.5-.6.8-1,1.1-.5.3-1,.4-1.5.4-.9,0-1.6-.3-2.1-.8-.5-.6-.8-1.4-.8-2.4ZM435.6,50.4c0,.8.2,1.4.5,1.8.3.4.8.6,1.3.6s1-.2,1.3-.6c.3-.4.5-1,.5-1.8s-.2-1.4-.5-1.7-.8-.6-1.3-.6-1,.2-1.3.6c-.3.4-.5,1-.5,1.8Z"/>
            <path id="ArialMT-73" class="st9" d="M441.2,51.7l1-.2c0,.4.2.7.5,1,.3.2.6.3,1.1.3s.8,0,1.1-.3c.2-.2.4-.4.4-.7s-.1-.4-.3-.6c-.1,0-.5-.2-1.1-.4-.8-.2-1.3-.4-1.6-.5s-.5-.3-.7-.6c-.2-.3-.2-.5-.2-.8s0-.5.2-.8c.1-.2.3-.4.5-.6.2-.1.4-.2.7-.3.3,0,.6-.1.9-.1.5,0,.9,0,1.3.2.4.1.6.3.8.6.2.2.3.6.4,1h-1c0-.2-.2-.4-.4-.6-.2-.2-.5-.3-1-.3s-.8,0-1,.2c-.2.2-.3.3-.3.6s0,.3.1.4c0,.1.2.2.4.3.1,0,.4.1.9.3.7.2,1.3.4,1.6.5.3.1.5.3.7.6.2.2.3.5.3.9s-.1.7-.3,1c-.2.3-.5.5-.9.7-.4.2-.8.3-1.3.3-.8,0-1.4-.2-1.8-.5-.4-.3-.7-.8-.8-1.5Z"/>
            <path id="ArialMT-693" data-name="ArialMT-69" class="st9" d="M447.6,46.2v-1.2h1.1v1.2h-1.1ZM447.6,53.6v-6.2h1.1v6.2h-1.1Z"/>
            <path id="ArialMT-731" data-name="ArialMT-73" class="st9" d="M449.8,51.7l1-.2c0,.4.2.7.5,1,.3.2.6.3,1.1.3s.8,0,1.1-.3c.2-.2.4-.4.4-.7s-.1-.4-.3-.6c-.1,0-.5-.2-1.1-.4-.8-.2-1.3-.4-1.6-.5s-.5-.3-.7-.6c-.2-.3-.2-.5-.2-.8s0-.5.2-.8c.1-.2.3-.4.5-.6.2-.1.4-.2.7-.3.3,0,.6-.1.9-.1.5,0,.9,0,1.3.2.4.1.6.3.8.6.2.2.3.6.4,1h-1c0-.2-.2-.4-.4-.6-.2-.2-.5-.3-1-.3s-.8,0-1,.2c-.2.2-.3.3-.3.6s0,.3.1.4c0,.1.2.2.4.3.1,0,.4.1.9.3.7.2,1.3.4,1.6.5.3.1.5.3.7.6.2.2.3.5.3.9s-.1.7-.3,1c-.2.3-.5.5-.9.7-.4.2-.8.3-1.3.3-.8,0-1.4-.2-1.8-.5-.4-.3-.7-.8-.8-1.5Z"/>
            <path id="ArialMT-2c" class="st9" d="M456.5,53.6v-1.2h1.2v1.2c0,.4,0,.8-.2,1.1-.2.3-.4.5-.7.6l-.3-.4c.2,0,.4-.2.5-.4.1-.2.2-.5.2-.8h-.6Z"/>
            <path id="ArialMT-204" data-name="ArialMT-20" class="st9" d="M458.8,53.6"/>
            <path id="ArialMT-6e7" data-name="ArialMT-6e" class="st9" d="M462.9,53.6v-6.2h.9v.9c.5-.7,1.1-1,2-1s.7,0,1,.2.6.3.7.5.3.5.3.8c0,.2,0,.5,0,1v3.8h-1.1v-3.8c0-.4,0-.8-.1-1,0-.2-.2-.4-.4-.5-.2-.1-.5-.2-.7-.2-.4,0-.8.1-1.2.4s-.5.8-.5,1.6v3.4h-1.1Z"/>
            <path id="ArialMT-6f5" data-name="ArialMT-6f" class="st9" d="M469.2,50.4c0-1.2.3-2,1-2.6.5-.5,1.2-.7,2-.7s1.6.3,2.1.8c.5.6.8,1.3.8,2.3s-.1,1.4-.4,1.9c-.2.5-.6.8-1,1.1-.5.3-1,.4-1.5.4-.9,0-1.6-.3-2.1-.8-.5-.6-.8-1.4-.8-2.4ZM470.3,50.4c0,.8.2,1.4.5,1.8.3.4.8.6,1.3.6s1-.2,1.3-.6c.3-.4.5-1,.5-1.8s-.2-1.4-.5-1.7-.8-.6-1.3-.6-1,.2-1.3.6c-.3.4-.5,1-.5,1.8Z"/>
            <path id="ArialMT-205" data-name="ArialMT-20" class="st9" d="M475.5,53.6"/>
            <path id="ArialMT-662" data-name="ArialMT-66" class="st9" d="M479.9,53.6v-5.4h-.9v-.8h.9v-.7c0-.4,0-.7.1-.9.1-.3.3-.5.5-.7.3-.2.6-.3,1.1-.3s.6,0,1,.1l-.2.9c-.2,0-.4,0-.6,0-.3,0-.5,0-.7.2-.1.1-.2.4-.2.8v.6h1.2v.8h-1.2v5.4h-1Z"/>
            <path id="ArialMT-655" data-name="ArialMT-65" class="st9" d="M487.2,51.6h1.1c-.2.8-.5,1.3-1,1.6-.5.4-1.1.5-1.8.5s-1.6-.3-2.2-.8c-.5-.6-.8-1.3-.8-2.4s.3-1.9.8-2.4c.5-.6,1.2-.9,2.1-.9s1.5.3,2,.8.8,1.4.8,2.4,0,.2,0,.3h-4.6c0,.7.2,1.2.6,1.6.3.4.8.5,1.3.5s.7-.1,1-.3c.3-.2.5-.5.7-1ZM483.7,49.8h3.5c0-.5-.2-.9-.4-1.2-.3-.4-.8-.6-1.3-.6s-.9.2-1.2.5-.5.8-.5,1.3Z"/>
            <path id="ArialMT-656" data-name="ArialMT-65" class="st9" d="M493.9,51.6h1.1c-.2.8-.5,1.3-1,1.6-.5.4-1.1.5-1.8.5s-1.6-.3-2.2-.8c-.5-.6-.8-1.3-.8-2.4s.3-1.9.8-2.4c.5-.6,1.2-.9,2.1-.9s1.5.3,2,.8.8,1.4.8,2.4,0,.2,0,.3h-4.6c0,.7.2,1.2.6,1.6.3.4.8.5,1.3.5s.7-.1,1-.3c.3-.2.5-.5.7-1ZM490.4,49.8h3.5c0-.5-.2-.9-.4-1.2-.3-.4-.8-.6-1.3-.6s-.9.2-1.2.5-.5.8-.5,1.3Z"/>
            <path id="ArialMT-643" data-name="ArialMT-64" class="st9" d="M500.3,53.6v-.8c-.4.6-1,.9-1.7.9s-1-.1-1.4-.4-.7-.7-1-1.1c-.2-.5-.3-1.1-.3-1.7s.1-1.2.3-1.7c.2-.5.5-.9.9-1.2.4-.3.9-.4,1.4-.4s.7,0,1,.2c.3.2.5.4.7.6v-3.1h1v8.6h-1ZM497,50.5c0,.8.2,1.4.5,1.8.3.4.7.6,1.2.6s.9-.2,1.2-.6c.3-.4.5-1,.5-1.7s-.2-1.5-.5-1.9c-.3-.4-.7-.6-1.2-.6s-.9.2-1.2.6c-.3.4-.5,1-.5,1.8Z"/>
            <path id="ArialMT-62" class="st9" d="M503.9,53.6h-1v-8.6h1.1v3.1c.4-.6,1-.8,1.7-.8s.7,0,1.1.2c.3.2.6.4.8.7.2.3.4.6.5,1,.1.4.2.8.2,1.3,0,1.1-.3,1.9-.8,2.5-.5.6-1.2.9-1.9.9s-1.3-.3-1.7-.9v.8ZM503.9,50.4c0,.7.1,1.3.3,1.6.3.5.8.8,1.3.8s.9-.2,1.2-.6c.3-.4.5-1,.5-1.8s-.2-1.4-.5-1.8-.7-.6-1.2-.6-.9.2-1.2.6c-.3.4-.5,1-.5,1.7Z"/>
            <path id="ArialMT-612" data-name="ArialMT-61" class="st9" d="M513.7,52.8c-.4.3-.8.6-1.1.7-.4.1-.7.2-1.2.2-.7,0-1.2-.2-1.6-.5s-.6-.8-.6-1.3,0-.6.2-.8c.1-.3.3-.5.5-.6s.5-.3.8-.3c.2,0,.5-.1.9-.2.9-.1,1.5-.2,1.9-.4,0-.1,0-.2,0-.3,0-.4,0-.7-.3-.9-.3-.2-.7-.4-1.2-.4s-.9,0-1.1.3-.4.5-.5.9h-1c0-.6.2-.9.5-1.2.2-.3.5-.5.9-.6.4-.1.9-.2,1.4-.2s1,0,1.3.2c.3.1.6.3.7.5.2.2.3.4.3.7,0,.2,0,.5,0,1v1.4c0,1,0,1.6,0,1.9,0,.3.1.5.3.7h-1.1c-.1-.2-.2-.5-.2-.8ZM513.6,50.4c-.4.2-1,.3-1.7.4-.4,0-.7.1-.9.2-.2,0-.3.2-.4.3,0,.1-.1.3-.1.5,0,.3.1.5.3.7.2.2.5.3.9.3s.8,0,1.1-.3c.3-.2.5-.4.7-.7.1-.2.2-.6.2-1.1v-.4Z"/>
            <path id="ArialMT-634" data-name="ArialMT-63" class="st9" d="M520.4,51.3h1c-.1.8-.4,1.4-.9,1.8-.5.4-1,.6-1.7.6s-1.5-.3-2.1-.8c-.5-.6-.8-1.4-.8-2.4s.1-1.3.3-1.8c.2-.5.6-.9,1-1.1.5-.3,1-.4,1.5-.4s1.2.2,1.7.5c.4.3.7.8.8,1.5l-1,.2c0-.4-.3-.7-.5-.9-.2-.2-.5-.3-.9-.3-.5,0-1,.2-1.3.6-.3.4-.5,1-.5,1.8s.2,1.4.5,1.8c.3.4.7.6,1.3.6s.8-.1,1-.4c.3-.3.5-.6.5-1.2Z"/>
            <path id="ArialMT-6b" class="st9" d="M522.3,53.6v-8.6h1.1v4.9l2.5-2.5h1.4l-2.4,2.3,2.6,3.9h-1.3l-2.1-3.2-.7.7v2.5h-1.1Z"/>
          </g>
        </g>
        <g id="line2d_16">
          <path class="st7" d="M358.5,66.5h24"/>
          <path id="m665c97483c11" data-name="m665c97483c" class="st28" d="M367.5,69.5h6v-6h-6v6Z"/>
        </g>
        <g id="text_12">
          <g>
            <path id="ArialMT-451" data-name="ArialMT-45" class="st9" d="M393.1,70.7v-8.6h6.2v1h-5.1v2.6h4.8v1h-4.8v2.9h5.3v1h-6.4Z"/>
            <path id="ArialMT-521" data-name="ArialMT-52" class="st9" d="M401,70.7v-8.6h3.8c.8,0,1.3,0,1.7.2.4.2.7.4,1,.8.2.4.4.8.4,1.3s-.2,1.1-.6,1.5c-.4.4-1,.7-1.8.8.3.1.5.3.7.4.3.3.6.7.9,1.1l1.5,2.3h-1.4l-1.1-1.8c-.3-.5-.6-.9-.8-1.2-.2-.3-.4-.5-.6-.6-.2-.1-.3-.2-.5-.2-.1,0-.3,0-.6,0h-1.3v3.8h-1.1ZM402.2,65.9h2.4c.5,0,.9,0,1.2-.2.3-.1.5-.3.7-.5s.2-.5.2-.8c0-.4-.1-.7-.4-1-.3-.3-.8-.4-1.4-.4h-2.7v2.8Z"/>
            <path id="ArialMT-2c1" data-name="ArialMT-2c" class="st9" d="M409.8,70.7v-1.2h1.2v1.2c0,.4,0,.8-.2,1.1-.2.3-.4.5-.7.6l-.3-.4c.2,0,.4-.2.5-.4.1-.2.2-.5.2-.8h-.6Z"/>
            <path id="ArialMT-206" data-name="ArialMT-20" class="st9" d="M412.1,70.7"/>
            <path id="ArialMT-452" data-name="ArialMT-45" class="st9" d="M416.4,70.7v-8.6h6.2v1h-5.1v2.6h4.8v1h-4.8v2.9h5.3v1h-6.4Z"/>
            <path id="ArialMT-57" class="st9" d="M425.9,70.7l-2.3-8.6h1.2l1.3,5.6c.1.6.3,1.2.4,1.8.2-.9.3-1.4.4-1.6l1.6-5.8h1.4l1.2,4.3c.3,1.1.5,2.1.7,3,.1-.5.3-1.2.4-1.9l1.3-5.5h1.1l-2.4,8.6h-1.1l-1.8-6.5c-.2-.5-.2-.9-.3-1,0,.4-.2.7-.3,1l-1.8,6.5h-1.2Z"/>
            <path id="ArialMT-207" data-name="ArialMT-20" class="st9" d="M434.8,70.7"/>
            <path id="ArialMT-2d" class="st9" d="M438.5,68.1v-1.1h3.2v1.1h-3.2Z"/>
            <path id="ArialMT-2d1" data-name="ArialMT-2d" class="st9" d="M442.5,68.1v-1.1h3.2v1.1h-3.2Z"/>
            <path id="ArialMT-3e" class="st9" d="M452.4,66.9l-5.7,2.4v-1l4.5-1.9-4.5-1.9v-1l5.7,2.4v1Z"/>
            <path id="ArialMT-208" data-name="ArialMT-20" class="st9" d="M453.1,70.7"/>
            <path id="ArialMT-453" data-name="ArialMT-45" class="st9" d="M457.4,70.7v-8.6h6.2v1h-5.1v2.6h4.8v1h-4.8v2.9h5.3v1h-6.4Z"/>
            <path id="ArialMT-522" data-name="ArialMT-52" class="st9" d="M465.4,70.7v-8.6h3.8c.8,0,1.3,0,1.7.2.4.2.7.4,1,.8.2.4.4.8.4,1.3s-.2,1.1-.6,1.5c-.4.4-1,.7-1.8.8.3.1.5.3.7.4.3.3.6.7.9,1.1l1.5,2.3h-1.4l-1.1-1.8c-.3-.5-.6-.9-.8-1.2-.2-.3-.4-.5-.6-.6-.2-.1-.3-.2-.5-.2-.1,0-.3,0-.6,0h-1.3v3.8h-1.1ZM466.5,65.9h2.4c.5,0,.9,0,1.2-.2.3-.1.5-.3.7-.5s.2-.5.2-.8c0-.4-.1-.7-.4-1-.3-.3-.8-.4-1.4-.4h-2.7v2.8Z"/>
            <path id="ArialMT-2c2" data-name="ArialMT-2c" class="st9" d="M474.2,70.7v-1.2h1.2v1.2c0,.4,0,.8-.2,1.1-.2.3-.4.5-.7.6l-.3-.4c.2,0,.4-.2.5-.4.1-.2.2-.5.2-.8h-.6Z"/>
            <path id="ArialMT-209" data-name="ArialMT-20" class="st9" d="M476.4,70.7"/>
            <path id="ArialMT-454" data-name="ArialMT-45" class="st9" d="M480.7,70.7v-8.6h6.2v1h-5.1v2.6h4.8v1h-4.8v2.9h5.3v1h-6.4Z"/>
            <path id="ArialMT-571" data-name="ArialMT-57" class="st9" d="M490.2,70.7l-2.3-8.6h1.2l1.3,5.6c.1.6.3,1.2.4,1.8.2-.9.3-1.4.4-1.6l1.6-5.8h1.4l1.2,4.3c.3,1.1.5,2.1.7,3,.1-.5.3-1.2.4-1.9l1.3-5.5h1.1l-2.4,8.6h-1.1l-1.8-6.5c-.2-.5-.2-.9-.3-1,0,.4-.2.7-.3,1l-1.8,6.5h-1.2Z"/>
          </g>
        </g>
        <g id="line2d_17">
          <path class="st1" d="M358.5,83.4h24"/>
          <path id="m5513caf5bb11" data-name="m5513caf5bb" class="st13" d="M370.5,87.7l2.5-4.2-2.5-4.2-2.5,4.2,2.5,4.2Z"/>
        </g>
        <g id="text_13">
          <g>
            <path id="ArialMT-455" data-name="ArialMT-45" class="st9" d="M393.1,87.6v-8.6h6.2v1h-5.1v2.6h4.8v1h-4.8v2.9h5.3v1h-6.4Z"/>
            <path id="ArialMT-523" data-name="ArialMT-52" class="st9" d="M401,87.6v-8.6h3.8c.8,0,1.3,0,1.7.2.4.2.7.4,1,.8.2.4.4.8.4,1.3s-.2,1.1-.6,1.5c-.4.4-1,.7-1.8.8.3.1.5.3.7.4.3.3.6.7.9,1.1l1.5,2.3h-1.4l-1.1-1.8c-.3-.5-.6-.9-.8-1.2-.2-.3-.4-.5-.6-.6-.2-.1-.3-.2-.5-.2-.1,0-.3,0-.6,0h-1.3v3.8h-1.1ZM402.2,82.8h2.4c.5,0,.9,0,1.2-.2.3-.1.5-.3.7-.5s.2-.5.2-.8c0-.4-.1-.7-.4-1-.3-.3-.8-.4-1.4-.4h-2.7v2.8Z"/>
            <path id="ArialMT-2c3" data-name="ArialMT-2c" class="st9" d="M409.8,87.6v-1.2h1.2v1.2c0,.4,0,.8-.2,1.1-.2.3-.4.5-.7.6l-.3-.4c.2,0,.4-.2.5-.4.1-.2.2-.5.2-.8h-.6Z"/>
            <path id="ArialMT-2010" data-name="ArialMT-20" class="st9" d="M412.1,87.6"/>
            <path id="ArialMT-456" data-name="ArialMT-45" class="st9" d="M416.4,87.6v-8.6h6.2v1h-5.1v2.6h4.8v1h-4.8v2.9h5.3v1h-6.4Z"/>
            <path id="ArialMT-572" data-name="ArialMT-57" class="st9" d="M425.9,87.6l-2.3-8.6h1.2l1.3,5.6c.1.6.3,1.2.4,1.8.2-.9.3-1.4.4-1.6l1.6-5.8h1.4l1.2,4.3c.3,1.1.5,2.1.7,3,.1-.5.3-1.2.4-1.9l1.3-5.5h1.1l-2.4,8.6h-1.1l-1.8-6.5c-.2-.5-.2-.9-.3-1,0,.4-.2.7-.3,1l-1.8,6.5h-1.2Z"/>
            <path id="ArialMT-2011" data-name="ArialMT-20" class="st9" d="M434.8,87.6"/>
            <path id="ArialMT-2d2" data-name="ArialMT-2d" class="st9" d="M438.5,85.1v-1.1h3.2v1.1h-3.2Z"/>
            <path id="ArialMT-2d3" data-name="ArialMT-2d" class="st9" d="M442.5,85.1v-1.1h3.2v1.1h-3.2Z"/>
            <path id="ArialMT-3e1" data-name="ArialMT-3e" class="st9" d="M452.4,83.9l-5.7,2.4v-1l4.5-1.9-4.5-1.9v-1l5.7,2.4v1Z"/>
            <path id="ArialMT-2012" data-name="ArialMT-20" class="st9" d="M453.1,87.6"/>
            <path id="ArialMT-524" data-name="ArialMT-52" class="st9" d="M457.4,87.6v-8.6h3.8c.8,0,1.3,0,1.7.2.4.2.7.4,1,.8.2.4.4.8.4,1.3s-.2,1.1-.6,1.5c-.4.4-1,.7-1.8.8.3.1.5.3.7.4.3.3.6.7.9,1.1l1.5,2.3h-1.4l-1.1-1.8c-.3-.5-.6-.9-.8-1.2-.2-.3-.4-.5-.6-.6-.2-.1-.3-.2-.5-.2-.1,0-.3,0-.6,0h-1.3v3.8h-1.1ZM458.5,82.8h2.4c.5,0,.9,0,1.2-.2.3-.1.5-.3.7-.5s.2-.5.2-.8c0-.4-.1-.7-.4-1-.3-.3-.8-.4-1.4-.4h-2.7v2.8Z"/>
            <path id="ArialMT-2c4" data-name="ArialMT-2c" class="st9" d="M466.2,87.6v-1.2h1.2v1.2c0,.4,0,.8-.2,1.1-.2.3-.4.5-.7.6l-.3-.4c.2,0,.4-.2.5-.4.1-.2.2-.5.2-.8h-.6Z"/>
            <path id="ArialMT-2013" data-name="ArialMT-20" class="st9" d="M468.4,87.6"/>
            <path id="ArialMT-573" data-name="ArialMT-57" class="st9" d="M474.2,87.6l-2.3-8.6h1.2l1.3,5.6c.1.6.3,1.2.4,1.8.2-.9.3-1.4.4-1.6l1.6-5.8h1.4l1.2,4.3c.3,1.1.5,2.1.7,3,.1-.5.3-1.2.4-1.9l1.3-5.5h1.1l-2.4,8.6h-1.1l-1.8-6.5c-.2-.5-.2-.9-.3-1,0,.4-.2.7-.3,1l-1.8,6.5h-1.2Z"/>
          </g>
        </g>
        <g id="line2d_18">
          <path class="st4" d="M358.5,100.4h24"/>
          <path id="mcc20d6b92911" data-name="mcc20d6b929" class="st26" d="M370.5,97.4l-.7,2.1h-2.2l1.8,1.3-.7,2.1,1.8-1.3,1.8,1.3-.7-2.1,1.8-1.3h-2.2l-.7-2.1Z"/>
        </g>
        <g id="text_14">
          <g>
            <path id="ArialMT-525" data-name="ArialMT-52" class="st9" d="M393,104.6v-8.6h3.8c.8,0,1.3,0,1.7.2.4.2.7.4,1,.8.2.4.4.8.4,1.3s-.2,1.1-.6,1.5c-.4.4-1,.7-1.8.8.3.1.5.3.7.4.3.3.6.7.9,1.1l1.5,2.3h-1.4l-1.1-1.8c-.3-.5-.6-.9-.8-1.2-.2-.3-.4-.5-.6-.6-.2-.1-.3-.2-.5-.2-.1,0-.3,0-.6,0h-1.3v3.8h-1.1ZM394.2,99.8h2.4c.5,0,.9,0,1.2-.2.3-.1.5-.3.7-.5s.2-.5.2-.8c0-.4-.1-.7-.4-1-.3-.3-.8-.4-1.4-.4h-2.7v2.8Z"/>
            <path id="ArialMT-2c5" data-name="ArialMT-2c" class="st9" d="M401.8,104.6v-1.2h1.2v1.2c0,.4,0,.8-.2,1.1-.2.3-.4.5-.7.6l-.3-.4c.2,0,.4-.2.5-.4.1-.2.2-.5.2-.8h-.6Z"/>
            <path id="ArialMT-2014" data-name="ArialMT-20" class="st9" d="M404.1,104.6"/>
            <path id="ArialMT-574" data-name="ArialMT-57" class="st9" d="M409.9,104.6l-2.3-8.6h1.2l1.3,5.6c.1.6.3,1.2.4,1.8.2-.9.3-1.4.4-1.6l1.6-5.8h1.4l1.2,4.3c.3,1.1.5,2.1.7,3,.1-.5.3-1.2.4-1.9l1.3-5.5h1.1l-2.4,8.6h-1.1l-1.8-6.5c-.2-.5-.2-.9-.3-1,0,.4-.2.7-.3,1l-1.8,6.5h-1.2Z"/>
            <path id="ArialMT-2015" data-name="ArialMT-20" class="st9" d="M418.8,104.6"/>
            <path id="ArialMT-2d4" data-name="ArialMT-2d" class="st9" d="M422.5,102v-1.1h3.2v1.1h-3.2Z"/>
            <path id="ArialMT-2d5" data-name="ArialMT-2d" class="st9" d="M426.5,102v-1.1h3.2v1.1h-3.2Z"/>
            <path id="ArialMT-3e2" data-name="ArialMT-3e" class="st9" d="M436.4,100.9l-5.7,2.4v-1l4.5-1.9-4.5-1.9v-1l5.7,2.4v1Z"/>
            <path id="ArialMT-2016" data-name="ArialMT-20" class="st9" d="M437.1,104.6"/>
            <path id="ArialMT-457" data-name="ArialMT-45" class="st9" d="M441.4,104.6v-8.6h6.2v1h-5.1v2.6h4.8v1h-4.8v2.9h5.3v1h-6.4Z"/>
            <path id="ArialMT-526" data-name="ArialMT-52" class="st9" d="M449.4,104.6v-8.6h3.8c.8,0,1.3,0,1.7.2.4.2.7.4,1,.8.2.4.4.8.4,1.3s-.2,1.1-.6,1.5c-.4.4-1,.7-1.8.8.3.1.5.3.7.4.3.3.6.7.9,1.1l1.5,2.3h-1.4l-1.1-1.8c-.3-.5-.6-.9-.8-1.2-.2-.3-.4-.5-.6-.6-.2-.1-.3-.2-.5-.2-.1,0-.3,0-.6,0h-1.3v3.8h-1.1ZM450.5,99.8h2.4c.5,0,.9,0,1.2-.2.3-.1.5-.3.7-.5s.2-.5.2-.8c0-.4-.1-.7-.4-1-.3-.3-.8-.4-1.4-.4h-2.7v2.8Z"/>
            <path id="ArialMT-2c6" data-name="ArialMT-2c" class="st9" d="M458.2,104.6v-1.2h1.2v1.2c0,.4,0,.8-.2,1.1-.2.3-.4.5-.7.6l-.3-.4c.2,0,.4-.2.5-.4.1-.2.2-.5.2-.8h-.6Z"/>
            <path id="ArialMT-2017" data-name="ArialMT-20" class="st9" d="M460.4,104.6"/>
            <path id="ArialMT-458" data-name="ArialMT-45" class="st9" d="M464.7,104.6v-8.6h6.2v1h-5.1v2.6h4.8v1h-4.8v2.9h5.3v1h-6.4Z"/>
            <path id="ArialMT-575" data-name="ArialMT-57" class="st9" d="M474.2,104.6l-2.3-8.6h1.2l1.3,5.6c.1.6.3,1.2.4,1.8.2-.9.3-1.4.4-1.6l1.6-5.8h1.4l1.2,4.3c.3,1.1.5,2.1.7,3,.1-.5.3-1.2.4-1.9l1.3-5.5h1.1l-2.4,8.6h-1.1l-1.8-6.5c-.2-.5-.2-.9-.3-1,0,.4-.2.7-.3,1l-1.8,6.5h-1.2Z"/>
          </g>
        </g>
        <g id="line2d_19">
          <path class="st6" d="M358.5,117.4h24"/>
          <path id="m3e4881ec6111" data-name="m3e4881ec61" class="st12" d="M370.5,120.4l3-6h-6l3,6Z"/>
        </g>
        <g id="text_15">
          <g>
            <path id="ArialMT-527" data-name="ArialMT-52" class="st9" d="M393,121.6v-8.6h3.8c.8,0,1.3,0,1.7.2.4.2.7.4,1,.8.2.4.4.8.4,1.3s-.2,1.1-.6,1.5c-.4.4-1,.7-1.8.8.3.1.5.3.7.4.3.3.6.7.9,1.1l1.5,2.3h-1.4l-1.1-1.8c-.3-.5-.6-.9-.8-1.2-.2-.3-.4-.5-.6-.6-.2-.1-.3-.2-.5-.2-.1,0-.3,0-.6,0h-1.3v3.8h-1.1ZM394.2,116.8h2.4c.5,0,.9,0,1.2-.2.3-.1.5-.3.7-.5s.2-.5.2-.8c0-.4-.1-.7-.4-1-.3-.3-.8-.4-1.4-.4h-2.7v2.8Z"/>
            <path id="ArialMT-2c7" data-name="ArialMT-2c" class="st9" d="M401.8,121.6v-1.2h1.2v1.2c0,.4,0,.8-.2,1.1-.2.3-.4.5-.7.6l-.3-.4c.2,0,.4-.2.5-.4.1-.2.2-.5.2-.8h-.6Z"/>
            <path id="ArialMT-2018" data-name="ArialMT-20" class="st9" d="M404.1,121.6"/>
            <path id="ArialMT-576" data-name="ArialMT-57" class="st9" d="M409.9,121.6l-2.3-8.6h1.2l1.3,5.6c.1.6.3,1.2.4,1.8.2-.9.3-1.4.4-1.6l1.6-5.8h1.4l1.2,4.3c.3,1.1.5,2.1.7,3,.1-.5.3-1.2.4-1.9l1.3-5.5h1.1l-2.4,8.6h-1.1l-1.8-6.5c-.2-.5-.2-.9-.3-1,0,.4-.2.7-.3,1l-1.8,6.5h-1.2Z"/>
            <path id="ArialMT-2019" data-name="ArialMT-20" class="st9" d="M418.8,121.6"/>
            <path id="ArialMT-2d6" data-name="ArialMT-2d" class="st9" d="M422.5,119v-1.1h3.2v1.1h-3.2Z"/>
            <path id="ArialMT-2d7" data-name="ArialMT-2d" class="st9" d="M426.5,119v-1.1h3.2v1.1h-3.2Z"/>
            <path id="ArialMT-3e3" data-name="ArialMT-3e" class="st9" d="M436.4,117.8l-5.7,2.4v-1l4.5-1.9-4.5-1.9v-1l5.7,2.4v1Z"/>
            <path id="ArialMT-2020" data-name="ArialMT-20" class="st9" d="M437.1,121.6"/>
            <path id="ArialMT-528" data-name="ArialMT-52" class="st9" d="M441.4,121.6v-8.6h3.8c.8,0,1.3,0,1.7.2.4.2.7.4,1,.8.2.4.4.8.4,1.3s-.2,1.1-.6,1.5c-.4.4-1,.7-1.8.8.3.1.5.3.7.4.3.3.6.7.9,1.1l1.5,2.3h-1.4l-1.1-1.8c-.3-.5-.6-.9-.8-1.2-.2-.3-.4-.5-.6-.6-.2-.1-.3-.2-.5-.2-.1,0-.3,0-.6,0h-1.3v3.8h-1.1ZM442.5,116.8h2.4c.5,0,.9,0,1.2-.2.3-.1.5-.3.7-.5s.2-.5.2-.8c0-.4-.1-.7-.4-1-.3-.3-.8-.4-1.4-.4h-2.7v2.8Z"/>
            <path id="ArialMT-2c8" data-name="ArialMT-2c" class="st9" d="M450.2,121.6v-1.2h1.2v1.2c0,.4,0,.8-.2,1.1-.2.3-.4.5-.7.6l-.3-.4c.2,0,.4-.2.5-.4.1-.2.2-.5.2-.8h-.6Z"/>
            <path id="ArialMT-2021" data-name="ArialMT-20" class="st9" d="M452.4,121.6"/>
            <path id="ArialMT-577" data-name="ArialMT-57" class="st9" d="M458.2,121.6l-2.3-8.6h1.2l1.3,5.6c.1.6.3,1.2.4,1.8.2-.9.3-1.4.4-1.6l1.6-5.8h1.4l1.2,4.3c.3,1.1.5,2.1.7,3,.1-.5.3-1.2.4-1.9l1.3-5.5h1.1l-2.4,8.6h-1.1l-1.8-6.5c-.2-.5-.2-.9-.3-1,0,.4-.2.7-.3,1l-1.8,6.5h-1.2Z"/>
          </g>
        </g>
        <g id="line2d_20">
          <path class="st5" d="M358.5,134.5h24"/>
          <path id="mf045c9a77411" data-name="mf045c9a774" class="st27" d="M367.5,134.5l6,3v-6l-6,3Z"/>
        </g>
        <g id="text_16">
          <g>
            <path id="ArialMT-6e8" data-name="ArialMT-6e" class="st9" d="M392.9,138.7v-6.2h.9v.9c.5-.7,1.1-1,2-1s.7,0,1,.2.6.3.7.5.3.5.3.8c0,.2,0,.5,0,1v3.8h-1.1v-3.8c0-.4,0-.8-.1-1,0-.2-.2-.4-.4-.5-.2-.1-.5-.2-.7-.2-.4,0-.8.1-1.2.4s-.5.8-.5,1.6v3.4h-1.1Z"/>
            <path id="ArialMT-6f6" data-name="ArialMT-6f" class="st9" d="M399.2,135.6c0-1.2.3-2,1-2.6.5-.5,1.2-.7,2-.7s1.6.3,2.1.8c.5.6.8,1.3.8,2.3s-.1,1.4-.4,1.9c-.2.5-.6.8-1,1.1-.5.3-1,.4-1.5.4-.9,0-1.6-.3-2.1-.8-.5-.6-.8-1.4-.8-2.4ZM400.3,135.6c0,.8.2,1.4.5,1.8.3.4.8.6,1.3.6s1-.2,1.3-.6c.3-.4.5-1,.5-1.8s-.2-1.4-.5-1.7-.8-.6-1.3-.6-1,.2-1.3.6c-.3.4-.5,1-.5,1.8Z"/>
            <path id="ArialMT-2022" data-name="ArialMT-20" class="st9" d="M405.4,138.7"/>
            <path id="ArialMT-657" data-name="ArialMT-65" class="st9" d="M413.8,136.7h1.1c-.2.8-.5,1.3-1,1.6-.5.4-1.1.5-1.8.5s-1.6-.3-2.2-.8c-.5-.6-.8-1.3-.8-2.4s.3-1.9.8-2.4c.5-.6,1.2-.9,2.1-.9s1.5.3,2,.8.8,1.4.8,2.4,0,.2,0,.3h-4.6c0,.7.2,1.2.6,1.6.3.4.8.5,1.3.5s.7-.1,1-.3c.3-.2.5-.5.7-1ZM410.4,135h3.5c0-.5-.2-.9-.4-1.2-.3-.4-.8-.6-1.3-.6s-.9.2-1.2.5-.5.8-.5,1.3Z"/>
            <path id="ArialMT-6e9" data-name="ArialMT-6e" class="st9" d="M416.2,138.7v-6.2h.9v.9c.5-.7,1.1-1,2-1s.7,0,1,.2.6.3.7.5.3.5.3.8c0,.2,0,.5,0,1v3.8h-1.1v-3.8c0-.4,0-.8-.1-1,0-.2-.2-.4-.4-.5-.2-.1-.5-.2-.7-.2-.4,0-.8.1-1.2.4s-.5.8-.5,1.6v3.4h-1.1Z"/>
            <path id="ArialMT-644" data-name="ArialMT-64" class="st9" d="M427,138.7v-.8c-.4.6-1,.9-1.7.9s-1-.1-1.4-.4-.7-.7-1-1.1c-.2-.5-.3-1.1-.3-1.7s.1-1.2.3-1.7c.2-.5.5-.9.9-1.2.4-.3.9-.4,1.4-.4s.7,0,1,.2c.3.2.5.4.7.6v-3.1h1v8.6h-1ZM423.6,135.6c0,.8.2,1.4.5,1.8.3.4.7.6,1.2.6s.9-.2,1.2-.6c.3-.4.5-1,.5-1.7s-.2-1.5-.5-1.9c-.3-.4-.7-.6-1.2-.6s-.9.2-1.2.6c-.3.4-.5,1-.5,1.8Z"/>
            <path id="ArialMT-6f7" data-name="ArialMT-6f" class="st9" d="M429.2,135.6c0-1.2.3-2,1-2.6.5-.5,1.2-.7,2-.7s1.6.3,2.1.8c.5.6.8,1.3.8,2.3s-.1,1.4-.4,1.9c-.2.5-.6.8-1,1.1-.5.3-1,.4-1.5.4-.9,0-1.6-.3-2.1-.8-.5-.6-.8-1.4-.8-2.4ZM430.3,135.6c0,.8.2,1.4.5,1.8.3.4.8.6,1.3.6s1-.2,1.3-.6c.3-.4.5-1,.5-1.8s-.2-1.4-.5-1.7-.8-.6-1.3-.6-1,.2-1.3.6c-.3.4-.5,1-.5,1.8Z"/>
            <path id="ArialMT-635" data-name="ArialMT-63" class="st9" d="M440.3,136.4h1c-.1.8-.4,1.4-.9,1.8-.5.4-1,.6-1.7.6s-1.5-.3-2.1-.8c-.5-.6-.8-1.4-.8-2.4s.1-1.3.3-1.8c.2-.5.6-.9,1-1.1.5-.3,1-.4,1.5-.4s1.2.2,1.7.5c.4.3.7.8.8,1.5l-1,.2c0-.4-.3-.7-.5-.9-.2-.2-.5-.3-.9-.3-.5,0-1,.2-1.3.6-.3.4-.5,1-.5,1.8s.2,1.4.5,1.8c.3.4.7.6,1.3.6s.8-.1,1-.4c.3-.3.5-.6.5-1.2Z"/>
            <path id="ArialMT-792" data-name="ArialMT-79" class="st9" d="M442.2,141.1v-1c.1,0,.3,0,.5,0s.4,0,.6-.1c.1,0,.3-.2.3-.3,0-.1.2-.4.3-.8,0,0,0-.1,0-.3l-2.4-6.2h1.1l1.3,3.6c.2.5.3.9.5,1.4.1-.5.3-1,.4-1.4l1.3-3.6h1.1l-2.4,6.3c-.3.7-.5,1.2-.6,1.4-.2.3-.4.6-.6.8-.2.2-.5.2-.9.2s-.4,0-.7-.1Z"/>
            <path id="ArialMT-744" data-name="ArialMT-74" class="st9" d="M450.6,137.8l.2.9c-.3,0-.6,0-.8,0-.4,0-.7,0-.9-.2-.2-.1-.4-.3-.4-.5,0-.2-.1-.6-.1-1.2v-3.6h-.8v-.8h.8v-1.5l1-.6v2.2h1.1v.8h-1.1v3.6c0,.3,0,.5,0,.6,0,0,0,.2.2.2,0,0,.2,0,.4,0s.3,0,.5,0Z"/>
            <path id="ArialMT-6f8" data-name="ArialMT-6f" class="st9" d="M451.2,135.6c0-1.2.3-2,1-2.6.5-.5,1.2-.7,2-.7s1.6.3,2.1.8c.5.6.8,1.3.8,2.3s-.1,1.4-.4,1.9c-.2.5-.6.8-1,1.1-.5.3-1,.4-1.5.4-.9,0-1.6-.3-2.1-.8-.5-.6-.8-1.4-.8-2.4ZM452.3,135.6c0,.8.2,1.4.5,1.8.3.4.8.6,1.3.6s1-.2,1.3-.6c.3-.4.5-1,.5-1.8s-.2-1.4-.5-1.7-.8-.6-1.3-.6-1,.2-1.3.6c-.3.4-.5,1-.5,1.8Z"/>
            <path id="ArialMT-732" data-name="ArialMT-73" class="st9" d="M457.9,136.9l1-.2c0,.4.2.7.5,1,.3.2.6.3,1.1.3s.8,0,1.1-.3c.2-.2.4-.4.4-.7s-.1-.4-.3-.6c-.1,0-.5-.2-1.1-.4-.8-.2-1.3-.4-1.6-.5s-.5-.3-.7-.6c-.2-.3-.2-.5-.2-.8s0-.5.2-.8c.1-.2.3-.4.5-.6.2-.1.4-.2.7-.3.3,0,.6-.1.9-.1.5,0,.9,0,1.3.2.4.1.6.3.8.6.2.2.3.6.4,1h-1c0-.2-.2-.4-.4-.6-.2-.2-.5-.3-1-.3s-.8,0-1,.2c-.2.2-.3.3-.3.6s0,.3.1.4c0,.1.2.2.4.3.1,0,.4.1.9.3.7.2,1.3.4,1.6.5.3.1.5.3.7.6.2.2.3.5.3.9s-.1.7-.3,1c-.2.3-.5.5-.9.7-.4.2-.8.3-1.3.3-.8,0-1.4-.2-1.8-.5-.4-.3-.7-.8-.8-1.5Z"/>
            <path id="ArialMT-694" data-name="ArialMT-69" class="st9" d="M464.3,131.3v-1.2h1.1v1.2h-1.1ZM464.3,138.7v-6.2h1.1v6.2h-1.1Z"/>
            <path id="ArialMT-733" data-name="ArialMT-73" class="st9" d="M466.5,136.9l1-.2c0,.4.2.7.5,1,.3.2.6.3,1.1.3s.8,0,1.1-.3c.2-.2.4-.4.4-.7s-.1-.4-.3-.6c-.1,0-.5-.2-1.1-.4-.8-.2-1.3-.4-1.6-.5s-.5-.3-.7-.6c-.2-.3-.2-.5-.2-.8s0-.5.2-.8c.1-.2.3-.4.5-.6.2-.1.4-.2.7-.3.3,0,.6-.1.9-.1.5,0,.9,0,1.3.2.4.1.6.3.8.6.2.2.3.6.4,1h-1c0-.2-.2-.4-.4-.6-.2-.2-.5-.3-1-.3s-.8,0-1,.2c-.2.2-.3.3-.3.6s0,.3.1.4c0,.1.2.2.4.3.1,0,.4.1.9.3.7.2,1.3.4,1.6.5.3.1.5.3.7.6.2.2.3.5.3.9s-.1.7-.3,1c-.2.3-.5.5-.9.7-.4.2-.8.3-1.3.3-.8,0-1.4-.2-1.8-.5-.4-.3-.7-.8-.8-1.5Z"/>
            <path id="ArialMT-2c9" data-name="ArialMT-2c" class="st9" d="M473.2,138.7v-1.2h1.2v1.2c0,.4,0,.8-.2,1.1-.2.3-.4.5-.7.6l-.3-.4c.2,0,.4-.2.5-.4.1-.2.2-.5.2-.8h-.6Z"/>
            <path id="ArialMT-2023" data-name="ArialMT-20" class="st9" d="M475.5,138.7"/>
            <path id="ArialMT-663" data-name="ArialMT-66" class="st9" d="M479.9,138.7v-5.4h-.9v-.8h.9v-.7c0-.4,0-.7.1-.9.1-.3.3-.5.5-.7.3-.2.6-.3,1.1-.3s.6,0,1,.1l-.2.9c-.2,0-.4,0-.6,0-.3,0-.5,0-.7.2-.1.1-.2.4-.2.8v.6h1.2v.8h-1.2v5.4h-1Z"/>
            <path id="ArialMT-658" data-name="ArialMT-65" class="st9" d="M487.2,136.7h1.1c-.2.8-.5,1.3-1,1.6-.5.4-1.1.5-1.8.5s-1.6-.3-2.2-.8c-.5-.6-.8-1.3-.8-2.4s.3-1.9.8-2.4c.5-.6,1.2-.9,2.1-.9s1.5.3,2,.8.8,1.4.8,2.4,0,.2,0,.3h-4.6c0,.7.2,1.2.6,1.6.3.4.8.5,1.3.5s.7-.1,1-.3c.3-.2.5-.5.7-1ZM483.7,135h3.5c0-.5-.2-.9-.4-1.2-.3-.4-.8-.6-1.3-.6s-.9.2-1.2.5-.5.8-.5,1.3Z"/>
            <path id="ArialMT-659" data-name="ArialMT-65" class="st9" d="M493.9,136.7h1.1c-.2.8-.5,1.3-1,1.6-.5.4-1.1.5-1.8.5s-1.6-.3-2.2-.8c-.5-.6-.8-1.3-.8-2.4s.3-1.9.8-2.4c.5-.6,1.2-.9,2.1-.9s1.5.3,2,.8.8,1.4.8,2.4,0,.2,0,.3h-4.6c0,.7.2,1.2.6,1.6.3.4.8.5,1.3.5s.7-.1,1-.3c.3-.2.5-.5.7-1ZM490.4,135h3.5c0-.5-.2-.9-.4-1.2-.3-.4-.8-.6-1.3-.6s-.9.2-1.2.5-.5.8-.5,1.3Z"/>
            <path id="ArialMT-645" data-name="ArialMT-64" class="st9" d="M500.3,138.7v-.8c-.4.6-1,.9-1.7.9s-1-.1-1.4-.4-.7-.7-1-1.1c-.2-.5-.3-1.1-.3-1.7s.1-1.2.3-1.7c.2-.5.5-.9.9-1.2.4-.3.9-.4,1.4-.4s.7,0,1,.2c.3.2.5.4.7.6v-3.1h1v8.6h-1ZM497,135.6c0,.8.2,1.4.5,1.8.3.4.7.6,1.2.6s.9-.2,1.2-.6c.3-.4.5-1,.5-1.7s-.2-1.5-.5-1.9c-.3-.4-.7-.6-1.2-.6s-.9.2-1.2.6c-.3.4-.5,1-.5,1.8Z"/>
            <path id="ArialMT-621" data-name="ArialMT-62" class="st9" d="M503.9,138.7h-1v-8.6h1.1v3.1c.4-.6,1-.8,1.7-.8s.7,0,1.1.2c.3.2.6.4.8.7.2.3.4.6.5,1,.1.4.2.8.2,1.3,0,1.1-.3,1.9-.8,2.5-.5.6-1.2.9-1.9.9s-1.3-.3-1.7-.9v.8ZM503.9,135.6c0,.7.1,1.3.3,1.6.3.5.8.8,1.3.8s.9-.2,1.2-.6c.3-.4.5-1,.5-1.8s-.2-1.4-.5-1.8-.7-.6-1.2-.6-.9.2-1.2.6c-.3.4-.5,1-.5,1.7Z"/>
            <path id="ArialMT-613" data-name="ArialMT-61" class="st9" d="M513.7,137.9c-.4.3-.8.6-1.1.7-.4.1-.7.2-1.2.2-.7,0-1.2-.2-1.6-.5s-.6-.8-.6-1.3,0-.6.2-.8c.1-.3.3-.5.5-.6s.5-.3.8-.3c.2,0,.5-.1.9-.2.9-.1,1.5-.2,1.9-.4,0-.1,0-.2,0-.3,0-.4,0-.7-.3-.9-.3-.2-.7-.4-1.2-.4s-.9,0-1.1.3-.4.5-.5.9h-1c0-.6.2-.9.5-1.2.2-.3.5-.5.9-.6.4-.1.9-.2,1.4-.2s1,0,1.3.2c.3.1.6.3.7.5.2.2.3.4.3.7,0,.2,0,.5,0,1v1.4c0,1,0,1.6,0,1.9,0,.3.1.5.3.7h-1.1c-.1-.2-.2-.5-.2-.8ZM513.6,135.6c-.4.2-1,.3-1.7.4-.4,0-.7.1-.9.2-.2,0-.3.2-.4.3,0,.1-.1.3-.1.5,0,.3.1.5.3.7.2.2.5.3.9.3s.8,0,1.1-.3c.3-.2.5-.4.7-.7.1-.2.2-.6.2-1.1v-.4Z"/>
            <path id="ArialMT-636" data-name="ArialMT-63" class="st9" d="M520.4,136.4h1c-.1.8-.4,1.4-.9,1.8-.5.4-1,.6-1.7.6s-1.5-.3-2.1-.8c-.5-.6-.8-1.4-.8-2.4s.1-1.3.3-1.8c.2-.5.6-.9,1-1.1.5-.3,1-.4,1.5-.4s1.2.2,1.7.5c.4.3.7.8.8,1.5l-1,.2c0-.4-.3-.7-.5-.9-.2-.2-.5-.3-.9-.3-.5,0-1,.2-1.3.6-.3.4-.5,1-.5,1.8s.2,1.4.5,1.8c.3.4.7.6,1.3.6s.8-.1,1-.4c.3-.3.5-.6.5-1.2Z"/>
            <path id="ArialMT-6b1" data-name="ArialMT-6b" class="st9" d="M522.3,138.7v-8.6h1.1v4.9l2.5-2.5h1.4l-2.4,2.3,2.6,3.9h-1.3l-2.1-3.2-.7.7v2.5h-1.1Z"/>
          </g>
        </g>
      </g>
    </g>
  </g>
</svg>